<?xml version="1.0" encoding="utf-8" standalone="no"?>
<!DOCTYPE svg PUBLIC "-//W3C//DTD SVG 1.1//EN"
  "http://www.w3.org/Graphics/SVG/1.1/DTD/svg11.dtd">
<!-- Created with matplotlib (https://matplotlib.org/) -->
<svg height="345.6pt" version="1.1" viewBox="0 0 460.8 345.6" width="460.8pt" xmlns="http://www.w3.org/2000/svg" xmlns:xlink="http://www.w3.org/1999/xlink">
 <defs>
  <style type="text/css">
*{stroke-linecap:butt;stroke-linejoin:round;}
  </style>
 </defs>
 <g id="figure_1">
  <g id="patch_1">
   <path d="M 0 345.6 
L 460.8 345.6 
L 460.8 0 
L 0 0 
z
" style="fill:#ffffff;"/>
  </g>
  <g id="axes_1">
   <g id="patch_2">
    <path d="M 57.6 307.584 
L 414.72 307.584 
L 414.72 41.472 
L 57.6 41.472 
z
" style="fill:#ffffff;"/>
   </g>
   <g id="matplotlib.axis_1">
    <g id="xtick_1">
     <g id="line2d_1">
      <path clip-path="url(#p5c2b0255cf)" d="M 73.832727 307.584 
L 73.832727 41.472 
" style="fill:none;stroke:#b0b0b0;stroke-linecap:square;stroke-width:0.8;"/>
     </g>
     <g id="line2d_2">
      <defs>
       <path d="M 0 0 
L 0 3.5 
" id="m0bdef5dbe7" style="stroke:#000000;stroke-width:0.8;"/>
      </defs>
      <g>
       <use style="stroke:#000000;stroke-width:0.8;" x="73.832727" xlink:href="#m0bdef5dbe7" y="307.584"/>
      </g>
     </g>
     <g id="text_1">
      <!-- 0 -->
      <defs>
       <path d="M 31.78125 66.40625 
Q 24.171875 66.40625 20.328125 58.90625 
Q 16.5 51.421875 16.5 36.375 
Q 16.5 21.390625 20.328125 13.890625 
Q 24.171875 6.390625 31.78125 6.390625 
Q 39.453125 6.390625 43.28125 13.890625 
Q 47.125 21.390625 47.125 36.375 
Q 47.125 51.421875 43.28125 58.90625 
Q 39.453125 66.40625 31.78125 66.40625 
z
M 31.78125 74.21875 
Q 44.046875 74.21875 50.515625 64.515625 
Q 56.984375 54.828125 56.984375 36.375 
Q 56.984375 17.96875 50.515625 8.265625 
Q 44.046875 -1.421875 31.78125 -1.421875 
Q 19.53125 -1.421875 13.0625 8.265625 
Q 6.59375 17.96875 6.59375 36.375 
Q 6.59375 54.828125 13.0625 64.515625 
Q 19.53125 74.21875 31.78125 74.21875 
z
" id="DejaVuSans-48"/>
      </defs>
      <g transform="translate(70.651477 322.182437)scale(0.1 -0.1)">
       <use xlink:href="#DejaVuSans-48"/>
      </g>
     </g>
    </g>
    <g id="xtick_2">
     <g id="line2d_3">
      <path clip-path="url(#p5c2b0255cf)" d="M 138.776625 307.584 
L 138.776625 41.472 
" style="fill:none;stroke:#b0b0b0;stroke-linecap:square;stroke-width:0.8;"/>
     </g>
     <g id="line2d_4">
      <g>
       <use style="stroke:#000000;stroke-width:0.8;" x="138.776625" xlink:href="#m0bdef5dbe7" y="307.584"/>
      </g>
     </g>
     <g id="text_2">
      <!-- 1000 -->
      <defs>
       <path d="M 12.40625 8.296875 
L 28.515625 8.296875 
L 28.515625 63.921875 
L 10.984375 60.40625 
L 10.984375 69.390625 
L 28.421875 72.90625 
L 38.28125 72.90625 
L 38.28125 8.296875 
L 54.390625 8.296875 
L 54.390625 0 
L 12.40625 0 
z
" id="DejaVuSans-49"/>
      </defs>
      <g transform="translate(126.051625 322.182437)scale(0.1 -0.1)">
       <use xlink:href="#DejaVuSans-49"/>
       <use x="63.623047" xlink:href="#DejaVuSans-48"/>
       <use x="127.246094" xlink:href="#DejaVuSans-48"/>
       <use x="190.869141" xlink:href="#DejaVuSans-48"/>
      </g>
     </g>
    </g>
    <g id="xtick_3">
     <g id="line2d_5">
      <path clip-path="url(#p5c2b0255cf)" d="M 203.720523 307.584 
L 203.720523 41.472 
" style="fill:none;stroke:#b0b0b0;stroke-linecap:square;stroke-width:0.8;"/>
     </g>
     <g id="line2d_6">
      <g>
       <use style="stroke:#000000;stroke-width:0.8;" x="203.720523" xlink:href="#m0bdef5dbe7" y="307.584"/>
      </g>
     </g>
     <g id="text_3">
      <!-- 2000 -->
      <defs>
       <path d="M 19.1875 8.296875 
L 53.609375 8.296875 
L 53.609375 0 
L 7.328125 0 
L 7.328125 8.296875 
Q 12.9375 14.109375 22.625 23.890625 
Q 32.328125 33.6875 34.8125 36.53125 
Q 39.546875 41.84375 41.421875 45.53125 
Q 43.3125 49.21875 43.3125 52.78125 
Q 43.3125 58.59375 39.234375 62.25 
Q 35.15625 65.921875 28.609375 65.921875 
Q 23.96875 65.921875 18.8125 64.3125 
Q 13.671875 62.703125 7.8125 59.421875 
L 7.8125 69.390625 
Q 13.765625 71.78125 18.9375 73 
Q 24.125 74.21875 28.421875 74.21875 
Q 39.75 74.21875 46.484375 68.546875 
Q 53.21875 62.890625 53.21875 53.421875 
Q 53.21875 48.921875 51.53125 44.890625 
Q 49.859375 40.875 45.40625 35.40625 
Q 44.1875 33.984375 37.640625 27.21875 
Q 31.109375 20.453125 19.1875 8.296875 
z
" id="DejaVuSans-50"/>
      </defs>
      <g transform="translate(190.995523 322.182437)scale(0.1 -0.1)">
       <use xlink:href="#DejaVuSans-50"/>
       <use x="63.623047" xlink:href="#DejaVuSans-48"/>
       <use x="127.246094" xlink:href="#DejaVuSans-48"/>
       <use x="190.869141" xlink:href="#DejaVuSans-48"/>
      </g>
     </g>
    </g>
    <g id="xtick_4">
     <g id="line2d_7">
      <path clip-path="url(#p5c2b0255cf)" d="M 268.664421 307.584 
L 268.664421 41.472 
" style="fill:none;stroke:#b0b0b0;stroke-linecap:square;stroke-width:0.8;"/>
     </g>
     <g id="line2d_8">
      <g>
       <use style="stroke:#000000;stroke-width:0.8;" x="268.664421" xlink:href="#m0bdef5dbe7" y="307.584"/>
      </g>
     </g>
     <g id="text_4">
      <!-- 3000 -->
      <defs>
       <path d="M 40.578125 39.3125 
Q 47.65625 37.796875 51.625 33 
Q 55.609375 28.21875 55.609375 21.1875 
Q 55.609375 10.40625 48.1875 4.484375 
Q 40.765625 -1.421875 27.09375 -1.421875 
Q 22.515625 -1.421875 17.65625 -0.515625 
Q 12.796875 0.390625 7.625 2.203125 
L 7.625 11.71875 
Q 11.71875 9.328125 16.59375 8.109375 
Q 21.484375 6.890625 26.8125 6.890625 
Q 36.078125 6.890625 40.9375 10.546875 
Q 45.796875 14.203125 45.796875 21.1875 
Q 45.796875 27.640625 41.28125 31.265625 
Q 36.765625 34.90625 28.71875 34.90625 
L 20.21875 34.90625 
L 20.21875 43.015625 
L 29.109375 43.015625 
Q 36.375 43.015625 40.234375 45.921875 
Q 44.09375 48.828125 44.09375 54.296875 
Q 44.09375 59.90625 40.109375 62.90625 
Q 36.140625 65.921875 28.71875 65.921875 
Q 24.65625 65.921875 20.015625 65.03125 
Q 15.375 64.15625 9.8125 62.3125 
L 9.8125 71.09375 
Q 15.4375 72.65625 20.34375 73.4375 
Q 25.25 74.21875 29.59375 74.21875 
Q 40.828125 74.21875 47.359375 69.109375 
Q 53.90625 64.015625 53.90625 55.328125 
Q 53.90625 49.265625 50.4375 45.09375 
Q 46.96875 40.921875 40.578125 39.3125 
z
" id="DejaVuSans-51"/>
      </defs>
      <g transform="translate(255.939421 322.182437)scale(0.1 -0.1)">
       <use xlink:href="#DejaVuSans-51"/>
       <use x="63.623047" xlink:href="#DejaVuSans-48"/>
       <use x="127.246094" xlink:href="#DejaVuSans-48"/>
       <use x="190.869141" xlink:href="#DejaVuSans-48"/>
      </g>
     </g>
    </g>
    <g id="xtick_5">
     <g id="line2d_9">
      <path clip-path="url(#p5c2b0255cf)" d="M 333.608319 307.584 
L 333.608319 41.472 
" style="fill:none;stroke:#b0b0b0;stroke-linecap:square;stroke-width:0.8;"/>
     </g>
     <g id="line2d_10">
      <g>
       <use style="stroke:#000000;stroke-width:0.8;" x="333.608319" xlink:href="#m0bdef5dbe7" y="307.584"/>
      </g>
     </g>
     <g id="text_5">
      <!-- 4000 -->
      <defs>
       <path d="M 37.796875 64.3125 
L 12.890625 25.390625 
L 37.796875 25.390625 
z
M 35.203125 72.90625 
L 47.609375 72.90625 
L 47.609375 25.390625 
L 58.015625 25.390625 
L 58.015625 17.1875 
L 47.609375 17.1875 
L 47.609375 0 
L 37.796875 0 
L 37.796875 17.1875 
L 4.890625 17.1875 
L 4.890625 26.703125 
z
" id="DejaVuSans-52"/>
      </defs>
      <g transform="translate(320.883319 322.182437)scale(0.1 -0.1)">
       <use xlink:href="#DejaVuSans-52"/>
       <use x="63.623047" xlink:href="#DejaVuSans-48"/>
       <use x="127.246094" xlink:href="#DejaVuSans-48"/>
       <use x="190.869141" xlink:href="#DejaVuSans-48"/>
      </g>
     </g>
    </g>
    <g id="xtick_6">
     <g id="line2d_11">
      <path clip-path="url(#p5c2b0255cf)" d="M 398.552217 307.584 
L 398.552217 41.472 
" style="fill:none;stroke:#b0b0b0;stroke-linecap:square;stroke-width:0.8;"/>
     </g>
     <g id="line2d_12">
      <g>
       <use style="stroke:#000000;stroke-width:0.8;" x="398.552217" xlink:href="#m0bdef5dbe7" y="307.584"/>
      </g>
     </g>
     <g id="text_6">
      <!-- 5000 -->
      <defs>
       <path d="M 10.796875 72.90625 
L 49.515625 72.90625 
L 49.515625 64.59375 
L 19.828125 64.59375 
L 19.828125 46.734375 
Q 21.96875 47.46875 24.109375 47.828125 
Q 26.265625 48.1875 28.421875 48.1875 
Q 40.625 48.1875 47.75 41.5 
Q 54.890625 34.8125 54.890625 23.390625 
Q 54.890625 11.625 47.5625 5.09375 
Q 40.234375 -1.421875 26.90625 -1.421875 
Q 22.3125 -1.421875 17.546875 -0.640625 
Q 12.796875 0.140625 7.71875 1.703125 
L 7.71875 11.625 
Q 12.109375 9.234375 16.796875 8.0625 
Q 21.484375 6.890625 26.703125 6.890625 
Q 35.15625 6.890625 40.078125 11.328125 
Q 45.015625 15.765625 45.015625 23.390625 
Q 45.015625 31 40.078125 35.4375 
Q 35.15625 39.890625 26.703125 39.890625 
Q 22.75 39.890625 18.8125 39.015625 
Q 14.890625 38.140625 10.796875 36.28125 
z
" id="DejaVuSans-53"/>
      </defs>
      <g transform="translate(385.827217 322.182437)scale(0.1 -0.1)">
       <use xlink:href="#DejaVuSans-53"/>
       <use x="63.623047" xlink:href="#DejaVuSans-48"/>
       <use x="127.246094" xlink:href="#DejaVuSans-48"/>
       <use x="190.869141" xlink:href="#DejaVuSans-48"/>
      </g>
     </g>
    </g>
    <g id="text_7">
     <!-- Epoch -->
     <defs>
      <path d="M 9.8125 72.90625 
L 55.90625 72.90625 
L 55.90625 64.59375 
L 19.671875 64.59375 
L 19.671875 43.015625 
L 54.390625 43.015625 
L 54.390625 34.71875 
L 19.671875 34.71875 
L 19.671875 8.296875 
L 56.78125 8.296875 
L 56.78125 0 
L 9.8125 0 
z
" id="DejaVuSans-69"/>
      <path d="M 18.109375 8.203125 
L 18.109375 -20.796875 
L 9.078125 -20.796875 
L 9.078125 54.6875 
L 18.109375 54.6875 
L 18.109375 46.390625 
Q 20.953125 51.265625 25.265625 53.625 
Q 29.59375 56 35.59375 56 
Q 45.5625 56 51.78125 48.09375 
Q 58.015625 40.1875 58.015625 27.296875 
Q 58.015625 14.40625 51.78125 6.484375 
Q 45.5625 -1.421875 35.59375 -1.421875 
Q 29.59375 -1.421875 25.265625 0.953125 
Q 20.953125 3.328125 18.109375 8.203125 
z
M 48.6875 27.296875 
Q 48.6875 37.203125 44.609375 42.84375 
Q 40.53125 48.484375 33.40625 48.484375 
Q 26.265625 48.484375 22.1875 42.84375 
Q 18.109375 37.203125 18.109375 27.296875 
Q 18.109375 17.390625 22.1875 11.75 
Q 26.265625 6.109375 33.40625 6.109375 
Q 40.53125 6.109375 44.609375 11.75 
Q 48.6875 17.390625 48.6875 27.296875 
z
" id="DejaVuSans-112"/>
      <path d="M 30.609375 48.390625 
Q 23.390625 48.390625 19.1875 42.75 
Q 14.984375 37.109375 14.984375 27.296875 
Q 14.984375 17.484375 19.15625 11.84375 
Q 23.34375 6.203125 30.609375 6.203125 
Q 37.796875 6.203125 41.984375 11.859375 
Q 46.1875 17.53125 46.1875 27.296875 
Q 46.1875 37.015625 41.984375 42.703125 
Q 37.796875 48.390625 30.609375 48.390625 
z
M 30.609375 56 
Q 42.328125 56 49.015625 48.375 
Q 55.71875 40.765625 55.71875 27.296875 
Q 55.71875 13.875 49.015625 6.21875 
Q 42.328125 -1.421875 30.609375 -1.421875 
Q 18.84375 -1.421875 12.171875 6.21875 
Q 5.515625 13.875 5.515625 27.296875 
Q 5.515625 40.765625 12.171875 48.375 
Q 18.84375 56 30.609375 56 
z
" id="DejaVuSans-111"/>
      <path d="M 48.78125 52.59375 
L 48.78125 44.1875 
Q 44.96875 46.296875 41.140625 47.34375 
Q 37.3125 48.390625 33.40625 48.390625 
Q 24.65625 48.390625 19.8125 42.84375 
Q 14.984375 37.3125 14.984375 27.296875 
Q 14.984375 17.28125 19.8125 11.734375 
Q 24.65625 6.203125 33.40625 6.203125 
Q 37.3125 6.203125 41.140625 7.25 
Q 44.96875 8.296875 48.78125 10.40625 
L 48.78125 2.09375 
Q 45.015625 0.34375 40.984375 -0.53125 
Q 36.96875 -1.421875 32.421875 -1.421875 
Q 20.0625 -1.421875 12.78125 6.34375 
Q 5.515625 14.109375 5.515625 27.296875 
Q 5.515625 40.671875 12.859375 48.328125 
Q 20.21875 56 33.015625 56 
Q 37.15625 56 41.109375 55.140625 
Q 45.0625 54.296875 48.78125 52.59375 
z
" id="DejaVuSans-99"/>
      <path d="M 54.890625 33.015625 
L 54.890625 0 
L 45.90625 0 
L 45.90625 32.71875 
Q 45.90625 40.484375 42.875 44.328125 
Q 39.84375 48.1875 33.796875 48.1875 
Q 26.515625 48.1875 22.3125 43.546875 
Q 18.109375 38.921875 18.109375 30.90625 
L 18.109375 0 
L 9.078125 0 
L 9.078125 75.984375 
L 18.109375 75.984375 
L 18.109375 46.1875 
Q 21.34375 51.125 25.703125 53.5625 
Q 30.078125 56 35.796875 56 
Q 45.21875 56 50.046875 50.171875 
Q 54.890625 44.34375 54.890625 33.015625 
z
" id="DejaVuSans-104"/>
     </defs>
     <g transform="translate(220.849063 335.860562)scale(0.1 -0.1)">
      <use xlink:href="#DejaVuSans-69"/>
      <use x="63.183594" xlink:href="#DejaVuSans-112"/>
      <use x="126.660156" xlink:href="#DejaVuSans-111"/>
      <use x="187.841797" xlink:href="#DejaVuSans-99"/>
      <use x="242.822266" xlink:href="#DejaVuSans-104"/>
     </g>
    </g>
   </g>
   <g id="matplotlib.axis_2">
    <g id="ytick_1">
     <g id="line2d_13">
      <path clip-path="url(#p5c2b0255cf)" d="M 57.6 280.993001 
L 414.72 280.993001 
" style="fill:none;stroke:#b0b0b0;stroke-linecap:square;stroke-width:0.8;"/>
     </g>
     <g id="line2d_14">
      <defs>
       <path d="M 0 0 
L -3.5 0 
" id="m30c9bc2211" style="stroke:#000000;stroke-width:0.8;"/>
      </defs>
      <g>
       <use style="stroke:#000000;stroke-width:0.8;" x="57.6" xlink:href="#m30c9bc2211" y="280.993001"/>
      </g>
     </g>
     <g id="text_8">
      <!-- 0.2 -->
      <defs>
       <path d="M 10.6875 12.40625 
L 21 12.40625 
L 21 0 
L 10.6875 0 
z
" id="DejaVuSans-46"/>
      </defs>
      <g transform="translate(34.696875 284.79222)scale(0.1 -0.1)">
       <use xlink:href="#DejaVuSans-48"/>
       <use x="63.623047" xlink:href="#DejaVuSans-46"/>
       <use x="95.410156" xlink:href="#DejaVuSans-50"/>
      </g>
     </g>
    </g>
    <g id="ytick_2">
     <g id="line2d_15">
      <path clip-path="url(#p5c2b0255cf)" d="M 57.6 245.46475 
L 414.72 245.46475 
" style="fill:none;stroke:#b0b0b0;stroke-linecap:square;stroke-width:0.8;"/>
     </g>
     <g id="line2d_16">
      <g>
       <use style="stroke:#000000;stroke-width:0.8;" x="57.6" xlink:href="#m30c9bc2211" y="245.46475"/>
      </g>
     </g>
     <g id="text_9">
      <!-- 0.3 -->
      <g transform="translate(34.696875 249.263969)scale(0.1 -0.1)">
       <use xlink:href="#DejaVuSans-48"/>
       <use x="63.623047" xlink:href="#DejaVuSans-46"/>
       <use x="95.410156" xlink:href="#DejaVuSans-51"/>
      </g>
     </g>
    </g>
    <g id="ytick_3">
     <g id="line2d_17">
      <path clip-path="url(#p5c2b0255cf)" d="M 57.6 209.9365 
L 414.72 209.9365 
" style="fill:none;stroke:#b0b0b0;stroke-linecap:square;stroke-width:0.8;"/>
     </g>
     <g id="line2d_18">
      <g>
       <use style="stroke:#000000;stroke-width:0.8;" x="57.6" xlink:href="#m30c9bc2211" y="209.9365"/>
      </g>
     </g>
     <g id="text_10">
      <!-- 0.4 -->
      <g transform="translate(34.696875 213.735718)scale(0.1 -0.1)">
       <use xlink:href="#DejaVuSans-48"/>
       <use x="63.623047" xlink:href="#DejaVuSans-46"/>
       <use x="95.410156" xlink:href="#DejaVuSans-52"/>
      </g>
     </g>
    </g>
    <g id="ytick_4">
     <g id="line2d_19">
      <path clip-path="url(#p5c2b0255cf)" d="M 57.6 174.408249 
L 414.72 174.408249 
" style="fill:none;stroke:#b0b0b0;stroke-linecap:square;stroke-width:0.8;"/>
     </g>
     <g id="line2d_20">
      <g>
       <use style="stroke:#000000;stroke-width:0.8;" x="57.6" xlink:href="#m30c9bc2211" y="174.408249"/>
      </g>
     </g>
     <g id="text_11">
      <!-- 0.5 -->
      <g transform="translate(34.696875 178.207468)scale(0.1 -0.1)">
       <use xlink:href="#DejaVuSans-48"/>
       <use x="63.623047" xlink:href="#DejaVuSans-46"/>
       <use x="95.410156" xlink:href="#DejaVuSans-53"/>
      </g>
     </g>
    </g>
    <g id="ytick_5">
     <g id="line2d_21">
      <path clip-path="url(#p5c2b0255cf)" d="M 57.6 138.879998 
L 414.72 138.879998 
" style="fill:none;stroke:#b0b0b0;stroke-linecap:square;stroke-width:0.8;"/>
     </g>
     <g id="line2d_22">
      <g>
       <use style="stroke:#000000;stroke-width:0.8;" x="57.6" xlink:href="#m30c9bc2211" y="138.879998"/>
      </g>
     </g>
     <g id="text_12">
      <!-- 0.6 -->
      <defs>
       <path d="M 33.015625 40.375 
Q 26.375 40.375 22.484375 35.828125 
Q 18.609375 31.296875 18.609375 23.390625 
Q 18.609375 15.53125 22.484375 10.953125 
Q 26.375 6.390625 33.015625 6.390625 
Q 39.65625 6.390625 43.53125 10.953125 
Q 47.40625 15.53125 47.40625 23.390625 
Q 47.40625 31.296875 43.53125 35.828125 
Q 39.65625 40.375 33.015625 40.375 
z
M 52.59375 71.296875 
L 52.59375 62.3125 
Q 48.875 64.0625 45.09375 64.984375 
Q 41.3125 65.921875 37.59375 65.921875 
Q 27.828125 65.921875 22.671875 59.328125 
Q 17.53125 52.734375 16.796875 39.40625 
Q 19.671875 43.65625 24.015625 45.921875 
Q 28.375 48.1875 33.59375 48.1875 
Q 44.578125 48.1875 50.953125 41.515625 
Q 57.328125 34.859375 57.328125 23.390625 
Q 57.328125 12.15625 50.6875 5.359375 
Q 44.046875 -1.421875 33.015625 -1.421875 
Q 20.359375 -1.421875 13.671875 8.265625 
Q 6.984375 17.96875 6.984375 36.375 
Q 6.984375 53.65625 15.1875 63.9375 
Q 23.390625 74.21875 37.203125 74.21875 
Q 40.921875 74.21875 44.703125 73.484375 
Q 48.484375 72.75 52.59375 71.296875 
z
" id="DejaVuSans-54"/>
      </defs>
      <g transform="translate(34.696875 142.679217)scale(0.1 -0.1)">
       <use xlink:href="#DejaVuSans-48"/>
       <use x="63.623047" xlink:href="#DejaVuSans-46"/>
       <use x="95.410156" xlink:href="#DejaVuSans-54"/>
      </g>
     </g>
    </g>
    <g id="ytick_6">
     <g id="line2d_23">
      <path clip-path="url(#p5c2b0255cf)" d="M 57.6 103.351748 
L 414.72 103.351748 
" style="fill:none;stroke:#b0b0b0;stroke-linecap:square;stroke-width:0.8;"/>
     </g>
     <g id="line2d_24">
      <g>
       <use style="stroke:#000000;stroke-width:0.8;" x="57.6" xlink:href="#m30c9bc2211" y="103.351748"/>
      </g>
     </g>
     <g id="text_13">
      <!-- 0.7 -->
      <defs>
       <path d="M 8.203125 72.90625 
L 55.078125 72.90625 
L 55.078125 68.703125 
L 28.609375 0 
L 18.3125 0 
L 43.21875 64.59375 
L 8.203125 64.59375 
z
" id="DejaVuSans-55"/>
      </defs>
      <g transform="translate(34.696875 107.150966)scale(0.1 -0.1)">
       <use xlink:href="#DejaVuSans-48"/>
       <use x="63.623047" xlink:href="#DejaVuSans-46"/>
       <use x="95.410156" xlink:href="#DejaVuSans-55"/>
      </g>
     </g>
    </g>
    <g id="ytick_7">
     <g id="line2d_25">
      <path clip-path="url(#p5c2b0255cf)" d="M 57.6 67.823497 
L 414.72 67.823497 
" style="fill:none;stroke:#b0b0b0;stroke-linecap:square;stroke-width:0.8;"/>
     </g>
     <g id="line2d_26">
      <g>
       <use style="stroke:#000000;stroke-width:0.8;" x="57.6" xlink:href="#m30c9bc2211" y="67.823497"/>
      </g>
     </g>
     <g id="text_14">
      <!-- 0.8 -->
      <defs>
       <path d="M 31.78125 34.625 
Q 24.75 34.625 20.71875 30.859375 
Q 16.703125 27.09375 16.703125 20.515625 
Q 16.703125 13.921875 20.71875 10.15625 
Q 24.75 6.390625 31.78125 6.390625 
Q 38.8125 6.390625 42.859375 10.171875 
Q 46.921875 13.96875 46.921875 20.515625 
Q 46.921875 27.09375 42.890625 30.859375 
Q 38.875 34.625 31.78125 34.625 
z
M 21.921875 38.8125 
Q 15.578125 40.375 12.03125 44.71875 
Q 8.5 49.078125 8.5 55.328125 
Q 8.5 64.0625 14.71875 69.140625 
Q 20.953125 74.21875 31.78125 74.21875 
Q 42.671875 74.21875 48.875 69.140625 
Q 55.078125 64.0625 55.078125 55.328125 
Q 55.078125 49.078125 51.53125 44.71875 
Q 48 40.375 41.703125 38.8125 
Q 48.828125 37.15625 52.796875 32.3125 
Q 56.78125 27.484375 56.78125 20.515625 
Q 56.78125 9.90625 50.3125 4.234375 
Q 43.84375 -1.421875 31.78125 -1.421875 
Q 19.734375 -1.421875 13.25 4.234375 
Q 6.78125 9.90625 6.78125 20.515625 
Q 6.78125 27.484375 10.78125 32.3125 
Q 14.796875 37.15625 21.921875 38.8125 
z
M 18.3125 54.390625 
Q 18.3125 48.734375 21.84375 45.5625 
Q 25.390625 42.390625 31.78125 42.390625 
Q 38.140625 42.390625 41.71875 45.5625 
Q 45.3125 48.734375 45.3125 54.390625 
Q 45.3125 60.0625 41.71875 63.234375 
Q 38.140625 66.40625 31.78125 66.40625 
Q 25.390625 66.40625 21.84375 63.234375 
Q 18.3125 60.0625 18.3125 54.390625 
z
" id="DejaVuSans-56"/>
      </defs>
      <g transform="translate(34.696875 71.622716)scale(0.1 -0.1)">
       <use xlink:href="#DejaVuSans-48"/>
       <use x="63.623047" xlink:href="#DejaVuSans-46"/>
       <use x="95.410156" xlink:href="#DejaVuSans-56"/>
      </g>
     </g>
    </g>
    <g id="text_15">
     <!-- Cost -->
     <defs>
      <path d="M 64.40625 67.28125 
L 64.40625 56.890625 
Q 59.421875 61.53125 53.78125 63.8125 
Q 48.140625 66.109375 41.796875 66.109375 
Q 29.296875 66.109375 22.65625 58.46875 
Q 16.015625 50.828125 16.015625 36.375 
Q 16.015625 21.96875 22.65625 14.328125 
Q 29.296875 6.6875 41.796875 6.6875 
Q 48.140625 6.6875 53.78125 8.984375 
Q 59.421875 11.28125 64.40625 15.921875 
L 64.40625 5.609375 
Q 59.234375 2.09375 53.4375 0.328125 
Q 47.65625 -1.421875 41.21875 -1.421875 
Q 24.65625 -1.421875 15.125 8.703125 
Q 5.609375 18.84375 5.609375 36.375 
Q 5.609375 53.953125 15.125 64.078125 
Q 24.65625 74.21875 41.21875 74.21875 
Q 47.75 74.21875 53.53125 72.484375 
Q 59.328125 70.75 64.40625 67.28125 
z
" id="DejaVuSans-67"/>
      <path d="M 44.28125 53.078125 
L 44.28125 44.578125 
Q 40.484375 46.53125 36.375 47.5 
Q 32.28125 48.484375 27.875 48.484375 
Q 21.1875 48.484375 17.84375 46.4375 
Q 14.5 44.390625 14.5 40.28125 
Q 14.5 37.15625 16.890625 35.375 
Q 19.28125 33.59375 26.515625 31.984375 
L 29.59375 31.296875 
Q 39.15625 29.25 43.1875 25.515625 
Q 47.21875 21.78125 47.21875 15.09375 
Q 47.21875 7.46875 41.1875 3.015625 
Q 35.15625 -1.421875 24.609375 -1.421875 
Q 20.21875 -1.421875 15.453125 -0.5625 
Q 10.6875 0.296875 5.421875 2 
L 5.421875 11.28125 
Q 10.40625 8.6875 15.234375 7.390625 
Q 20.0625 6.109375 24.8125 6.109375 
Q 31.15625 6.109375 34.5625 8.28125 
Q 37.984375 10.453125 37.984375 14.40625 
Q 37.984375 18.0625 35.515625 20.015625 
Q 33.0625 21.96875 24.703125 23.78125 
L 21.578125 24.515625 
Q 13.234375 26.265625 9.515625 29.90625 
Q 5.8125 33.546875 5.8125 39.890625 
Q 5.8125 47.609375 11.28125 51.796875 
Q 16.75 56 26.8125 56 
Q 31.78125 56 36.171875 55.265625 
Q 40.578125 54.546875 44.28125 53.078125 
z
" id="DejaVuSans-115"/>
      <path d="M 18.3125 70.21875 
L 18.3125 54.6875 
L 36.8125 54.6875 
L 36.8125 47.703125 
L 18.3125 47.703125 
L 18.3125 18.015625 
Q 18.3125 11.328125 20.140625 9.421875 
Q 21.96875 7.515625 27.59375 7.515625 
L 36.8125 7.515625 
L 36.8125 0 
L 27.59375 0 
Q 17.1875 0 13.234375 3.875 
Q 9.28125 7.765625 9.28125 18.015625 
L 9.28125 47.703125 
L 2.6875 47.703125 
L 2.6875 54.6875 
L 9.28125 54.6875 
L 9.28125 70.21875 
z
" id="DejaVuSans-116"/>
     </defs>
     <g transform="translate(28.617188 185.643625)rotate(-90)scale(0.1 -0.1)">
      <use xlink:href="#DejaVuSans-67"/>
      <use x="69.824219" xlink:href="#DejaVuSans-111"/>
      <use x="131.005859" xlink:href="#DejaVuSans-115"/>
      <use x="183.105469" xlink:href="#DejaVuSans-116"/>
     </g>
    </g>
   </g>
   <g id="line2d_27">
    <path clip-path="url(#p5c2b0255cf)" d="M 73.832727 53.568 
L 74.352278 136.464547 
L 74.87183 185.794163 
L 75.391381 214.508382 
L 75.910932 232.516346 
L 76.495427 245.657622 
L 77.079922 254.416667 
L 77.664417 260.461864 
L 78.248912 264.811834 
L 79.223071 269.512986 
L 79.937454 271.719754 
L 81.171388 274.153787 
L 81.820827 275.013215 
L 82.53521 275.742279 
L 82.665097 275.714962 
L 82.859929 275.992581 
L 83.249592 276.268027 
L 83.769144 276.586498 
L 84.028919 276.778356 
L 86.04218 277.679295 
L 86.172068 277.750949 
L 86.691619 277.942424 
L 87.146226 278.089882 
L 87.21117 277.992793 
L 87.406002 278.182889 
L 87.795665 278.301439 
L 88.250273 278.457986 
L 88.445104 278.507236 
L 88.899712 278.6255 
L 90.523309 279.040455 
L 90.718141 279.094617 
L 90.977916 279.183128 
L 91.107804 279.195609 
L 91.36758 279.269231 
L 92.081963 279.419751 
L 96.173428 280.166625 
L 96.303316 280.051864 
L 96.36826 280.259935 
L 96.433204 280.236146 
L 96.692979 280.289051 
L 96.887811 280.295763 
L 97.342418 280.376644 
L 97.797026 280.473832 
L 97.991857 280.470883 
L 101.04422 280.886554 
L 101.109164 280.820243 
L 101.174108 280.908039 
L 101.628716 280.89636 
L 101.823547 280.988303 
L 102.53793 281.017786 
L 102.797706 281.080413 
L 102.927594 281.108009 
L 102.992537 280.983194 
L 103.187369 281.135384 
L 103.577032 281.08979 
L 103.836808 281.150951 
L 103.901752 281.108379 
L 104.096584 281.225021 
L 104.486247 281.175553 
L 104.681079 281.268087 
L 105.070742 281.237366 
L 105.265574 281.307047 
L 105.460406 281.324387 
L 105.850069 281.373174 
L 106.889171 281.463714 
L 107.668498 281.527907 
L 107.733442 281.413614 
L 107.798386 281.509755 
L 108.902432 281.633658 
L 109.616815 281.665445 
L 109.811647 281.653451 
L 110.980637 281.753641 
L 111.110525 281.801919 
L 111.305356 281.770852 
L 111.759964 281.800323 
L 111.954795 281.839518 
L 112.279515 281.859052 
L 112.53929 281.876801 
L 113.643337 281.956797 
L 113.838168 281.944115 
L 114.097944 281.963091 
L 114.292776 281.988451 
L 114.35772 281.913833 
L 114.487607 282.020031 
L 114.682439 282.002029 
L 114.812327 282.028779 
L 114.942215 282.066531 
L 115.266934 282.032179 
L 115.52671 282.051701 
L 115.916373 282.083584 
L 116.046261 282.103411 
L 116.241093 282.102219 
L 116.760644 282.137622 
L 116.825588 282.04301 
L 116.955475 282.180035 
L 117.215251 282.178059 
L 117.475027 282.20711 
L 117.604914 282.230548 
L 118.254353 282.23831 
L 118.579073 282.203678 
L 118.644017 282.147025 
L 118.838848 282.288793 
L 119.163568 282.290021 
L 119.618175 282.328755 
L 120.072783 282.328008 
L 123.709641 282.518405 
L 123.774585 282.397147 
L 123.904473 282.553767 
L 124.748743 282.599919 
L 125.398182 282.647372 
L 125.593014 282.642523 
L 126.632116 282.711502 
L 126.69706 282.607693 
L 126.826948 282.704483 
L 127.346499 282.724724 
L 127.411443 282.612884 
L 127.541331 282.713125 
L 127.86605 282.68072 
L 128.060882 282.768854 
L 128.19077 282.75259 
L 129.749423 282.83471 
L 130.009199 282.839361 
L 130.268975 282.836454 
L 130.333918 282.795892 
L 130.463806 282.881667 
L 130.52875 282.813623 
L 130.593694 282.8805 
L 131.243133 282.919496 
L 131.69774 282.937307 
L 132.02246 282.911038 
L 132.087404 282.793162 
L 132.217291 282.956337 
L 132.477067 282.948991 
L 132.671899 282.976193 
L 132.736843 282.841473 
L 132.931674 283.00702 
L 133.840889 283.016863 
L 134.035721 283.029952 
L 134.165608 283.061965 
L 136.568533 283.125489 
L 136.69842 283.152149 
L 136.828308 283.132828 
L 137.672579 283.170662 
L 137.867411 283.207022 
L 138.19213 283.237773 
L 138.257074 283.110078 
L 138.322018 283.245543 
L 138.386962 283.204498 
L 138.581793 283.196852 
L 138.711681 283.248782 
L 138.841569 283.236176 
L 139.426064 283.241637 
L 139.750784 283.295032 
L 139.815728 283.214234 
L 139.880671 283.271841 
L 142.478427 283.414871 
L 142.868091 283.383548 
L 142.997979 283.433713 
L 143.51753 283.392172 
L 143.712361 283.494033 
L 143.777305 283.411436 
L 143.842249 283.488421 
L 143.972137 283.398295 
L 144.166969 283.496558 
L 144.621576 283.4645 
L 144.881352 283.535757 
L 145.465847 283.571163 
L 145.85551 283.377389 
L 145.985398 283.574139 
L 146.310117 283.564794 
L 146.569893 283.631531 
L 146.699781 283.59709 
L 147.089444 283.639646 
L 147.284276 283.607309 
L 147.544051 283.653253 
L 147.673939 283.62395 
L 147.738883 283.553717 
L 147.933715 283.682802 
L 149.167649 283.715314 
L 149.232593 283.73971 
L 149.297537 283.638808 
L 149.36248 283.719641 
L 149.817088 283.779901 
L 150.076863 283.689685 
L 150.271695 283.766282 
L 150.466527 283.752783 
L 150.661358 283.796711 
L 150.986078 283.82169 
L 151.18091 283.761268 
L 151.505629 283.868937 
L 151.895293 283.862039 
L 152.155068 283.888717 
L 152.220012 283.800276 
L 152.284956 283.871141 
L 152.479788 283.875461 
L 153.51889 283.950009 
L 153.778666 283.961723 
L 154.168329 283.983931 
L 154.622936 284.014804 
L 154.68788 283.922386 
L 154.752824 283.992825 
L 155.532151 284.036332 
L 155.85687 284.081624 
L 155.921814 283.977052 
L 155.986758 284.054891 
L 156.18159 284.048965 
L 156.571253 284.118102 
L 157.415524 284.171219 
L 157.480468 284.076363 
L 157.545412 284.168062 
L 158.51957 284.190311 
L 158.714402 284.23872 
L 159.039121 284.265475 
L 159.104065 284.187936 
L 159.169009 284.250535 
L 159.623616 284.281014 
L 159.883392 284.289977 
L 160.01328 284.237354 
L 160.208111 284.315562 
L 160.402943 284.269157 
L 160.467887 284.192859 
L 160.532831 284.329422 
L 160.597775 284.282524 
L 160.792607 284.329219 
L 161.506989 284.360571 
L 161.766765 284.340199 
L 161.961597 284.44711 
L 162.611036 284.35545 
L 162.805867 284.484962 
L 162.935755 284.453258 
L 163.130587 284.45788 
L 163.52025 284.457479 
L 163.780026 284.536721 
L 164.234633 284.524533 
L 164.429465 284.54184 
L 164.754184 284.597479 
L 165.598455 284.631831 
L 165.988118 284.648376 
L 166.053062 284.649751 
L 166.118006 284.469908 
L 166.247894 284.673726 
L 166.442726 284.65045 
L 166.50767 284.711321 
L 166.572613 284.62847 
L 166.832389 284.710358 
L 167.027221 284.670414 
L 167.222052 284.715676 
L 167.286996 284.64107 
L 167.481828 284.781081 
L 167.67666 284.735812 
L 168.066323 284.801054 
L 168.261155 284.802289 
L 169.105425 284.803066 
L 169.365201 284.876851 
L 169.884752 284.920892 
L 170.079584 284.90421 
L 170.209472 284.921215 
L 170.33936 284.910892 
L 170.469247 284.871634 
L 170.664079 284.948135 
L 171.053742 284.953724 
L 171.378462 285.013588 
L 176.573974 285.333476 
L 176.703861 285.382374 
L 176.898693 285.248369 
L 177.028581 285.401906 
L 177.288357 285.339947 
L 177.483188 285.425673 
L 177.67802 285.43171 
L 177.872852 285.448594 
L 178.067683 285.371787 
L 178.262515 285.462932 
L 178.717122 285.540847 
L 178.782066 285.399684 
L 178.84701 285.522626 
L 179.431505 285.590423 
L 179.496449 285.460149 
L 179.561393 285.562345 
L 179.821169 285.621769 
L 180.016 285.532118 
L 180.275776 285.65044 
L 180.795327 285.660606 
L 185.731063 286.02751 
L 185.990839 286.056758 
L 186.315558 286.098678 
L 186.900053 286.085993 
L 187.029941 286.125569 
L 187.094885 286.039583 
L 187.159829 286.142831 
L 187.224773 286.084876 
L 187.549492 286.183603 
L 187.809268 286.123048 
L 187.939156 286.197948 
L 188.588595 286.224421 
L 188.913314 286.198284 
L 189.108146 286.242864 
L 190.471968 286.357465 
L 190.731743 286.353631 
L 191.186351 286.445923 
L 191.251295 286.367869 
L 191.316239 286.450899 
L 191.576014 286.45093 
L 191.900734 286.498243 
L 191.965677 286.417836 
L 192.030621 286.503994 
L 192.160509 286.523926 
L 192.874892 286.576496 
L 193.00478 286.53697 
L 193.199612 286.589539 
L 193.264555 286.529676 
L 193.329499 286.607847 
L 193.849051 286.621477 
L 193.913994 286.653502 
L 193.978938 286.540484 
L 194.043882 286.668238 
L 194.108826 286.611667 
L 194.238714 286.651605 
L 195.082985 286.686617 
L 195.277816 286.734274 
L 195.992199 286.764785 
L 196.057143 286.649196 
L 196.122087 286.813723 
L 196.187031 286.787258 
L 196.251975 286.722189 
L 196.316919 286.802398 
L 199.629057 287.058405 
L 200.018721 287.077287 
L 200.34344 287.097003 
L 200.408384 287.007428 
L 200.473328 287.087679 
L 200.603216 287.049546 
L 200.733104 287.159857 
L 200.798048 287.061897 
L 200.927935 287.158377 
L 202.616477 287.259864 
L 202.811308 287.301984 
L 202.941196 287.216731 
L 203.136028 287.319178 
L 203.33086 287.318419 
L 203.590635 287.345889 
L 204.045243 287.335502 
L 205.798728 287.520423 
L 205.993559 287.45735 
L 206.253335 287.545408 
L 206.383223 287.56501 
L 206.967718 287.597859 
L 207.097606 287.495444 
L 207.292437 287.593546 
L 207.357381 287.549079 
L 207.552213 287.638192 
L 208.071764 287.675223 
L 208.786147 287.699437 
L 208.851091 287.612888 
L 208.916035 287.67036 
L 209.110867 287.743935 
L 209.760306 287.790177 
L 209.890193 287.78436 
L 210.66952 287.835572 
L 211.124127 287.85702 
L 211.83851 287.937812 
L 211.903454 287.842142 
L 211.968398 287.905875 
L 212.16323 287.950216 
L 212.228174 287.886913 
L 212.293118 287.964402 
L 213.072444 287.914847 
L 213.202332 288.028009 
L 213.33222 288.0002 
L 213.786827 288.079993 
L 213.981659 288.0061 
L 214.046603 288.10938 
L 214.111547 288.055277 
L 214.176491 288.0741 
L 214.306378 287.967139 
L 214.50121 288.130043 
L 214.696042 288.119913 
L 215.020761 288.124697 
L 215.085705 288.056791 
L 215.150649 288.143127 
L 215.345481 288.106496 
L 215.540312 288.129587 
L 215.735144 288.212785 
L 215.99492 288.156843 
L 216.189751 288.209419 
L 216.579415 288.186143 
L 216.774246 288.283506 
L 217.488629 288.229417 
L 217.683461 288.282921 
L 218.073124 288.338237 
L 218.65762 288.337926 
L 218.852451 288.392516 
L 220.476049 288.487428 
L 220.865712 288.548821 
L 220.9956 288.555163 
L 221.060544 288.435941 
L 221.125488 288.548343 
L 221.320319 288.5301 
L 224.047963 288.730932 
L 224.242795 288.720083 
L 224.762346 288.780255 
L 224.82729 288.697229 
L 224.892234 288.782594 
L 225.022122 288.810986 
L 225.736504 288.848617 
L 225.801448 288.716183 
L 225.931336 288.863861 
L 225.99628 288.755596 
L 226.061224 288.845431 
L 226.450887 288.881472 
L 229.957858 289.052389 
L 230.022802 288.96565 
L 230.087746 289.115861 
L 230.152689 289.086873 
L 230.347521 289.094875 
L 230.477409 289.128515 
L 230.737185 289.150285 
L 230.932016 289.109897 
L 231.126848 289.147447 
L 231.32168 289.156437 
L 231.451567 289.136688 
L 231.711343 289.213582 
L 232.360782 289.226737 
L 232.425726 289.141334 
L 232.49067 289.206623 
L 232.750445 289.264741 
L 233.140109 289.278202 
L 233.594716 289.3353 
L 233.984379 289.283103 
L 234.179211 289.358094 
L 234.309099 289.33134 
L 234.568875 289.368671 
L 234.82865 289.324742 
L 234.893594 289.408798 
L 234.958538 289.308183 
L 235.023482 289.401326 
L 238.855172 289.620685 
L 239.114947 289.61956 
L 239.244835 289.595041 
L 239.699442 289.642053 
L 239.82933 289.551779 
L 239.894274 289.679283 
L 239.959218 289.634311 
L 240.15405 289.690922 
L 240.413825 289.654602 
L 240.608657 289.717185 
L 240.933376 289.720254 
L 241.128208 289.74275 
L 241.258096 289.701578 
L 241.452928 289.75315 
L 241.712703 289.731321 
L 242.037423 289.80226 
L 243.206413 289.810144 
L 243.401245 289.87317 
L 247.362822 290.069147 
L 247.622598 290.083682 
L 248.077205 290.013507 
L 248.207093 290.126004 
L 249.376083 290.162986 
L 249.570915 290.165958 
L 250.15541 290.150065 
L 250.285298 290.249476 
L 250.415186 290.219983 
L 250.804849 290.240848 
L 251.129568 290.179939 
L 251.194512 290.289467 
L 251.259456 290.232697 
L 251.519232 290.311703 
L 251.843951 290.257644 
L 252.038783 290.304194 
L 252.428446 290.33335 
L 252.753166 290.358325 
L 253.922156 290.397704 
L 254.116988 290.407338 
L 254.376763 290.373578 
L 254.766427 290.461757 
L 255.026202 290.419493 
L 255.15609 290.475781 
L 255.350922 290.422144 
L 255.610697 290.454633 
L 255.805529 290.505808 
L 258.98778 290.615538 
L 259.247556 290.683124 
L 259.442387 290.520412 
L 259.507331 290.646432 
L 259.572275 290.581032 
L 259.832051 290.691504 
L 260.351602 290.692627 
L 260.611378 290.730004 
L 260.871153 290.709234 
L 261.001041 290.766175 
L 261.130929 290.721437 
L 262.170031 290.766578 
L 262.364863 290.783909 
L 265.287338 290.945838 
L 265.417226 290.930928 
L 265.612058 290.901162 
L 265.871833 290.967715 
L 266.066665 290.971417 
L 268.664421 291.063557 
L 268.98914 291.09494 
L 269.183972 291.113116 
L 270.223074 291.130805 
L 270.48285 291.173784 
L 270.80757 291.165403 
L 271.002401 291.167401 
L 271.262177 291.201556 
L 271.586896 291.208166 
L 271.65184 291.079065 
L 271.781728 291.238138 
L 272.106447 291.212598 
L 272.301279 291.252942 
L 272.431167 291.26059 
L 272.496111 291.145355 
L 272.561055 291.251301 
L 272.625999 291.177703 
L 272.690943 291.262595 
L 272.885774 291.256882 
L 273.405325 291.287284 
L 274.769147 291.354037 
L 274.834091 291.136216 
L 274.899035 291.27197 
L 275.093867 291.347531 
L 275.223755 291.338134 
L 278.341062 291.478528 
L 278.990501 291.52257 
L 279.055445 291.416916 
L 279.120388 291.477973 
L 279.250276 291.520671 
L 281.133649 291.542511 
L 281.198593 291.488994 
L 281.328481 291.59358 
L 281.523313 291.519022 
L 281.6532 291.627534 
L 281.97792 291.621147 
L 282.172752 291.656076 
L 282.237696 291.548529 
L 282.302639 291.649243 
L 283.276798 291.698497 
L 283.341742 291.584539 
L 283.406686 291.674913 
L 283.601517 291.695261 
L 284.121069 291.696522 
L 284.3159 291.694056 
L 284.770508 291.63488 
L 284.835451 291.764353 
L 284.900395 291.681248 
L 284.965339 291.760061 
L 285.030283 291.699418 
L 285.160171 291.743629 
L 285.290059 291.735035 
L 285.48489 291.754168 
L 285.939498 291.790215 
L 286.199273 291.726092 
L 286.394105 291.745647 
L 286.588937 291.783315 
L 288.017702 291.867163 
L 290.095907 291.916445 
L 290.225795 291.889106 
L 290.420627 291.961947 
L 290.680402 291.949781 
L 290.745346 291.855408 
L 290.940178 291.98255 
L 293.278158 292.050427 
L 293.862653 292.074339 
L 294.64198 292.115692 
L 294.706924 292.007953 
L 294.836812 292.107018 
L 295.291419 292.151364 
L 295.356363 292.02196 
L 295.421307 292.118068 
L 296.460409 292.186351 
L 296.720185 292.125298 
L 297.109848 292.216539 
L 297.564455 292.214316 
L 298.668502 292.252546 
L 298.733446 292.13968 
L 298.798389 292.223912 
L 298.993221 292.245917 
L 299.577716 292.281683 
L 299.772548 292.299814 
L 300.292099 292.327962 
L 300.681763 292.323665 
L 300.876594 292.319045 
L 300.941538 292.181123 
L 301.13637 292.361718 
L 301.331202 292.354333 
L 301.526033 292.355181 
L 301.655921 292.313895 
L 301.850753 292.369519 
L 302.110528 292.397242 
L 302.240416 292.286416 
L 302.435248 292.41489 
L 303.019743 292.378696 
L 303.084687 292.291299 
L 303.149631 292.379243 
L 303.734126 292.427017 
L 304.188733 292.452576 
L 304.253677 292.388304 
L 304.318621 292.471571 
L 304.708284 292.490651 
L 304.773228 292.418139 
L 304.838172 292.48955 
L 305.162891 292.444055 
L 305.487611 292.519117 
L 305.552555 292.329388 
L 305.617499 292.454229 
L 305.747387 292.517847 
L 305.81233 292.388257 
L 305.877274 292.43331 
L 307.046265 292.536745 
L 307.176152 292.468529 
L 307.241096 292.567185 
L 307.30604 292.515206 
L 307.500872 292.537248 
L 308.020423 292.565851 
L 308.410086 292.619246 
L 308.604918 292.603911 
L 308.734806 292.626196 
L 309.254357 292.659453 
L 309.319301 292.562978 
L 309.384245 292.610654 
L 309.514133 292.606698 
L 309.838852 292.655944 
L 310.033684 292.670487 
L 310.228516 292.639812 
L 310.423347 292.668768 
L 310.553235 292.70157 
L 310.683123 292.693298 
L 311.267618 292.673185 
L 311.332562 292.732308 
L 311.397506 292.651605 
L 312.176832 292.753264 
L 312.241776 292.611425 
L 312.371664 292.738745 
L 312.891215 292.763815 
L 313.150991 292.782814 
L 313.410767 292.752031 
L 313.605598 292.787277 
L 313.80043 292.689321 
L 313.930318 292.811862 
L 314.060205 292.797288 
L 314.319981 292.828706 
L 314.579757 292.794623 
L 314.96942 292.830185 
L 315.618859 292.767328 
L 315.683803 292.877951 
L 315.748747 292.817066 
L 316.268298 292.894745 
L 316.528074 292.89106 
L 316.852793 292.879564 
L 316.917737 292.827169 
L 316.982681 292.915464 
L 318.216615 292.963358 
L 318.411447 292.884965 
L 318.541334 292.940879 
L 318.866054 293.006299 
L 318.930998 292.870629 
L 318.995942 292.961299 
L 319.255717 292.984181 
L 319.710325 292.921777 
L 319.840212 293.021109 
L 320.164932 292.957279 
L 320.359764 293.030073 
L 320.489651 293.006064 
L 320.619539 293.061164 
L 320.684483 292.947076 
L 320.749427 293.048191 
L 320.944259 292.994024 
L 321.13909 293.073438 
L 321.528754 293.00923 
L 321.723585 293.091605 
L 322.827632 293.115746 
L 323.152351 293.160674 
L 323.412127 293.086917 
L 323.606958 293.161149 
L 324.12651 293.182381 
L 324.256397 293.179494 
L 328.737526 293.328043 
L 328.80247 293.248817 
L 328.867414 293.307286 
L 329.12719 293.36724 
L 330.036404 293.408212 
L 330.166292 293.388441 
L 331.270338 293.388451 
L 331.46517 293.449486 
L 331.724946 293.425202 
L 332.049665 293.430759 
L 332.179553 293.392864 
L 332.309441 293.475964 
L 332.504272 293.434222 
L 332.699104 293.47985 
L 332.893936 293.430196 
L 332.95888 293.370527 
L 333.023824 293.452024 
L 333.088768 293.49363 
L 333.153711 293.392655 
L 333.218655 293.492467 
L 336.660682 293.607013 
L 336.725626 293.464941 
L 336.79057 293.577499 
L 336.920458 293.636578 
L 337.115289 293.498638 
L 337.310121 293.643672 
L 337.569897 293.575782 
L 337.894616 293.670955 
L 338.154392 293.650339 
L 338.349223 293.670737 
L 338.803831 293.695167 
L 339.12855 293.694352 
L 339.45327 293.735734 
L 339.648101 293.677054 
L 340.557316 293.714004 
L 340.882035 293.766768 
L 341.011923 293.69101 
L 341.141811 293.766512 
L 341.726306 293.783774 
L 341.921138 293.789664 
L 343.025184 293.763612 
L 343.220016 293.838615 
L 343.544735 293.801332 
L 343.674623 293.814151 
L 344.324062 293.897623 
L 344.583837 293.899019 
L 345.038445 293.847505 
L 345.233276 293.929457 
L 345.687884 293.881043 
L 345.752828 293.946227 
L 345.817772 293.801205 
L 345.947659 293.936276 
L 348.155752 293.996696 
L 348.415527 293.980797 
L 348.935079 294.008416 
L 349.259798 294.045391 
L 349.389686 293.998012 
L 349.519574 294.018135 
L 349.779349 293.984695 
L 349.844293 294.05896 
L 349.909237 293.974678 
L 350.233957 294.08148 
L 350.558676 294.05878 
L 350.753508 294.098498 
L 350.883396 294.063537 
L 351.078227 294.082586 
L 351.402947 294.002652 
L 351.597778 294.108595 
L 351.79261 294.038332 
L 351.987442 294.031285 
L 352.182274 294.154679 
L 352.377105 294.131175 
L 352.636881 294.17392 
L 352.896656 294.147712 
L 353.026544 294.180102 
L 353.156432 294.187686 
L 353.416208 294.125163 
L 353.481152 294.180537 
L 353.546095 294.056429 
L 353.611039 294.139578 
L 353.805871 294.207014 
L 354.520254 294.076277 
L 354.585198 294.220002 
L 354.650142 293.985343 
L 354.715086 294.230608 
L 354.780029 294.169191 
L 354.909917 294.209039 
L 355.039805 294.230166 
L 355.429468 294.245875 
L 356.013964 294.213911 
L 356.208795 294.207419 
L 356.663402 294.274743 
L 356.79329 294.124925 
L 356.923178 294.279204 
L 357.377785 294.263108 
L 357.572617 294.310781 
L 358.092168 294.253087 
L 358.287 294.352326 
L 359.261158 294.278809 
L 359.326102 294.184066 
L 359.45599 294.358638 
L 359.520934 294.267224 
L 359.585878 294.358172 
L 363.157792 294.42667 
L 363.222736 294.502733 
L 363.28768 294.384825 
L 363.352624 294.472215 
L 363.937119 294.50885 
L 364.002063 294.194694 
L 364.131951 294.492084 
L 364.846334 294.541794 
L 365.430829 294.510979 
L 365.755548 294.572298 
L 366.664763 294.56408 
L 366.924538 294.5892 
L 366.989482 294.528198 
L 367.054426 294.604193 
L 367.44409 294.53744 
L 367.573977 294.61351 
L 367.638921 294.535661 
L 367.703865 294.622017 
L 367.833753 294.616004 
L 371.665443 294.693461 
L 371.730387 294.607892 
L 371.795331 294.670217 
L 372.184994 294.750297 
L 372.574657 294.772388 
L 373.353984 294.731609 
L 373.808592 294.764305 
L 374.068367 294.78922 
L 377.640282 294.910253 
L 377.705225 294.773769 
L 377.900057 294.939671 
L 378.224777 294.840088 
L 378.28972 294.930044 
L 378.354664 294.880529 
L 378.549496 294.905304 
L 378.61444 294.83596 
L 378.679384 294.916792 
L 378.809272 294.951688 
L 378.939159 294.865225 
L 379.133991 294.973675 
L 380.173094 294.955317 
L 380.432869 295.008616 
L 380.692645 294.941152 
L 381.017364 294.985443 
L 381.991523 295.028384 
L 382.12141 294.951934 
L 382.316242 295.073886 
L 382.381186 294.958803 
L 382.44613 295.0235 
L 382.640962 295.038068 
L 383.030625 295.064141 
L 383.61512 295.033305 
L 383.809952 295.087946 
L 384.524335 295.07206 
L 384.654222 295.092759 
L 384.78411 295.050605 
L 385.043886 295.086957 
L 385.173774 295.121344 
L 385.563437 295.143489 
L 386.018044 295.128376 
L 386.27782 295.12784 
L 386.407708 295.001927 
L 386.602539 295.111526 
L 386.797371 295.15142 
L 386.992203 295.1781 
L 387.057147 295.121101 
L 387.122091 295.199828 
L 387.381866 295.114464 
L 387.641642 295.191773 
L 387.901417 295.198456 
L 388.226137 295.184501 
L 388.291081 295.108785 
L 388.356025 295.177422 
L 388.810632 295.214594 
L 390.174454 295.082583 
L 390.369285 295.282657 
L 390.499173 295.293661 
L 390.629061 295.254713 
L 390.694005 295.165368 
L 390.758949 295.254492 
L 391.2785 295.248716 
L 391.668163 295.263078 
L 391.992883 295.315595 
L 392.902098 295.334254 
L 392.967041 295.201928 
L 393.096929 295.331066 
L 394.525695 295.352463 
L 394.590639 295.296922 
L 394.655583 295.385201 
L 394.980302 295.395124 
L 395.045246 295.19568 
L 395.175134 295.411176 
L 395.240078 295.328427 
L 395.305022 295.40613 
L 395.629741 295.286871 
L 396.084349 295.42796 
L 396.668844 295.415952 
L 396.798731 295.413978 
L 396.928619 295.377684 
L 397.318283 295.425032 
L 397.383226 295.365106 
L 397.44817 295.478007 
L 397.513114 295.392241 
L 397.707946 295.457215 
L 397.902778 295.418478 
L 398.097609 295.444162 
L 398.227497 295.427287 
L 398.357385 295.455839 
L 398.422329 295.360874 
L 398.487273 295.488 
L 398.487273 295.488 
" style="fill:none;stroke:#1f77b4;stroke-linecap:square;stroke-width:1.5;"/>
   </g>
   <g id="patch_3">
    <path d="M 57.6 307.584 
L 57.6 41.472 
" style="fill:none;stroke:#000000;stroke-linecap:square;stroke-linejoin:miter;stroke-width:0.8;"/>
   </g>
   <g id="patch_4">
    <path d="M 414.72 307.584 
L 414.72 41.472 
" style="fill:none;stroke:#000000;stroke-linecap:square;stroke-linejoin:miter;stroke-width:0.8;"/>
   </g>
   <g id="patch_5">
    <path d="M 57.6 307.584 
L 414.72 307.584 
" style="fill:none;stroke:#000000;stroke-linecap:square;stroke-linejoin:miter;stroke-width:0.8;"/>
   </g>
   <g id="patch_6">
    <path d="M 57.6 41.472 
L 414.72 41.472 
" style="fill:none;stroke:#000000;stroke-linecap:square;stroke-linejoin:miter;stroke-width:0.8;"/>
   </g>
   <g id="text_16">
    <!-- Cost Function Convergence -->
    <defs>
     <path id="DejaVuSans-32"/>
     <path d="M 9.8125 72.90625 
L 51.703125 72.90625 
L 51.703125 64.59375 
L 19.671875 64.59375 
L 19.671875 43.109375 
L 48.578125 43.109375 
L 48.578125 34.8125 
L 19.671875 34.8125 
L 19.671875 0 
L 9.8125 0 
z
" id="DejaVuSans-70"/>
     <path d="M 8.5 21.578125 
L 8.5 54.6875 
L 17.484375 54.6875 
L 17.484375 21.921875 
Q 17.484375 14.15625 20.5 10.265625 
Q 23.53125 6.390625 29.59375 6.390625 
Q 36.859375 6.390625 41.078125 11.03125 
Q 45.3125 15.671875 45.3125 23.6875 
L 45.3125 54.6875 
L 54.296875 54.6875 
L 54.296875 0 
L 45.3125 0 
L 45.3125 8.40625 
Q 42.046875 3.421875 37.71875 1 
Q 33.40625 -1.421875 27.6875 -1.421875 
Q 18.265625 -1.421875 13.375 4.4375 
Q 8.5 10.296875 8.5 21.578125 
z
M 31.109375 56 
z
" id="DejaVuSans-117"/>
     <path d="M 54.890625 33.015625 
L 54.890625 0 
L 45.90625 0 
L 45.90625 32.71875 
Q 45.90625 40.484375 42.875 44.328125 
Q 39.84375 48.1875 33.796875 48.1875 
Q 26.515625 48.1875 22.3125 43.546875 
Q 18.109375 38.921875 18.109375 30.90625 
L 18.109375 0 
L 9.078125 0 
L 9.078125 54.6875 
L 18.109375 54.6875 
L 18.109375 46.1875 
Q 21.34375 51.125 25.703125 53.5625 
Q 30.078125 56 35.796875 56 
Q 45.21875 56 50.046875 50.171875 
Q 54.890625 44.34375 54.890625 33.015625 
z
" id="DejaVuSans-110"/>
     <path d="M 9.421875 54.6875 
L 18.40625 54.6875 
L 18.40625 0 
L 9.421875 0 
z
M 9.421875 75.984375 
L 18.40625 75.984375 
L 18.40625 64.59375 
L 9.421875 64.59375 
z
" id="DejaVuSans-105"/>
     <path d="M 2.984375 54.6875 
L 12.5 54.6875 
L 29.59375 8.796875 
L 46.6875 54.6875 
L 56.203125 54.6875 
L 35.6875 0 
L 23.484375 0 
z
" id="DejaVuSans-118"/>
     <path d="M 56.203125 29.59375 
L 56.203125 25.203125 
L 14.890625 25.203125 
Q 15.484375 15.921875 20.484375 11.0625 
Q 25.484375 6.203125 34.421875 6.203125 
Q 39.59375 6.203125 44.453125 7.46875 
Q 49.3125 8.734375 54.109375 11.28125 
L 54.109375 2.78125 
Q 49.265625 0.734375 44.1875 -0.34375 
Q 39.109375 -1.421875 33.890625 -1.421875 
Q 20.796875 -1.421875 13.15625 6.1875 
Q 5.515625 13.8125 5.515625 26.8125 
Q 5.515625 40.234375 12.765625 48.109375 
Q 20.015625 56 32.328125 56 
Q 43.359375 56 49.78125 48.890625 
Q 56.203125 41.796875 56.203125 29.59375 
z
M 47.21875 32.234375 
Q 47.125 39.59375 43.09375 43.984375 
Q 39.0625 48.390625 32.421875 48.390625 
Q 24.90625 48.390625 20.390625 44.140625 
Q 15.875 39.890625 15.1875 32.171875 
z
" id="DejaVuSans-101"/>
     <path d="M 41.109375 46.296875 
Q 39.59375 47.171875 37.8125 47.578125 
Q 36.03125 48 33.890625 48 
Q 26.265625 48 22.1875 43.046875 
Q 18.109375 38.09375 18.109375 28.8125 
L 18.109375 0 
L 9.078125 0 
L 9.078125 54.6875 
L 18.109375 54.6875 
L 18.109375 46.1875 
Q 20.953125 51.171875 25.484375 53.578125 
Q 30.03125 56 36.53125 56 
Q 37.453125 56 38.578125 55.875 
Q 39.703125 55.765625 41.0625 55.515625 
z
" id="DejaVuSans-114"/>
     <path d="M 45.40625 27.984375 
Q 45.40625 37.75 41.375 43.109375 
Q 37.359375 48.484375 30.078125 48.484375 
Q 22.859375 48.484375 18.828125 43.109375 
Q 14.796875 37.75 14.796875 27.984375 
Q 14.796875 18.265625 18.828125 12.890625 
Q 22.859375 7.515625 30.078125 7.515625 
Q 37.359375 7.515625 41.375 12.890625 
Q 45.40625 18.265625 45.40625 27.984375 
z
M 54.390625 6.78125 
Q 54.390625 -7.171875 48.1875 -13.984375 
Q 42 -20.796875 29.203125 -20.796875 
Q 24.46875 -20.796875 20.265625 -20.09375 
Q 16.0625 -19.390625 12.109375 -17.921875 
L 12.109375 -9.1875 
Q 16.0625 -11.328125 19.921875 -12.34375 
Q 23.78125 -13.375 27.78125 -13.375 
Q 36.625 -13.375 41.015625 -8.765625 
Q 45.40625 -4.15625 45.40625 5.171875 
L 45.40625 9.625 
Q 42.625 4.78125 38.28125 2.390625 
Q 33.9375 0 27.875 0 
Q 17.828125 0 11.671875 7.65625 
Q 5.515625 15.328125 5.515625 27.984375 
Q 5.515625 40.671875 11.671875 48.328125 
Q 17.828125 56 27.875 56 
Q 33.9375 56 38.28125 53.609375 
Q 42.625 51.21875 45.40625 46.390625 
L 45.40625 54.6875 
L 54.390625 54.6875 
z
" id="DejaVuSans-103"/>
    </defs>
    <g transform="translate(153.927188 35.472)scale(0.12 -0.12)">
     <use xlink:href="#DejaVuSans-67"/>
     <use x="69.824219" xlink:href="#DejaVuSans-111"/>
     <use x="131.005859" xlink:href="#DejaVuSans-115"/>
     <use x="183.105469" xlink:href="#DejaVuSans-116"/>
     <use x="222.314453" xlink:href="#DejaVuSans-32"/>
     <use x="254.101562" xlink:href="#DejaVuSans-70"/>
     <use x="306.121094" xlink:href="#DejaVuSans-117"/>
     <use x="369.5" xlink:href="#DejaVuSans-110"/>
     <use x="432.878906" xlink:href="#DejaVuSans-99"/>
     <use x="487.859375" xlink:href="#DejaVuSans-116"/>
     <use x="527.068359" xlink:href="#DejaVuSans-105"/>
     <use x="554.851562" xlink:href="#DejaVuSans-111"/>
     <use x="616.033203" xlink:href="#DejaVuSans-110"/>
     <use x="679.412109" xlink:href="#DejaVuSans-32"/>
     <use x="711.199219" xlink:href="#DejaVuSans-67"/>
     <use x="781.023438" xlink:href="#DejaVuSans-111"/>
     <use x="842.205078" xlink:href="#DejaVuSans-110"/>
     <use x="905.583984" xlink:href="#DejaVuSans-118"/>
     <use x="964.763672" xlink:href="#DejaVuSans-101"/>
     <use x="1026.287109" xlink:href="#DejaVuSans-114"/>
     <use x="1065.650391" xlink:href="#DejaVuSans-103"/>
     <use x="1129.126953" xlink:href="#DejaVuSans-101"/>
     <use x="1190.650391" xlink:href="#DejaVuSans-110"/>
     <use x="1254.029297" xlink:href="#DejaVuSans-99"/>
     <use x="1309.009766" xlink:href="#DejaVuSans-101"/>
    </g>
   </g>
  </g>
 </g>
 <defs>
  <clipPath id="p5c2b0255cf">
   <rect height="266.112" width="357.12" x="57.6" y="41.472"/>
  </clipPath>
 </defs>
</svg>
