<?xml version="1.0" encoding="utf-8" standalone="no"?>
<!DOCTYPE svg PUBLIC "-//W3C//DTD SVG 1.1//EN"
  "http://www.w3.org/Graphics/SVG/1.1/DTD/svg11.dtd">
<!-- Created with matplotlib (https://matplotlib.org/) -->
<svg height="345.6pt" version="1.1" viewBox="0 0 460.8 345.6" width="460.8pt" xmlns="http://www.w3.org/2000/svg" xmlns:xlink="http://www.w3.org/1999/xlink">
 <defs>
  <style type="text/css">
*{stroke-linecap:butt;stroke-linejoin:round;}
  </style>
 </defs>
 <g id="figure_1">
  <g id="patch_1">
   <path d="M 0 345.6 
L 460.8 345.6 
L 460.8 0 
L 0 0 
z
" style="fill:#ffffff;"/>
  </g>
  <g id="axes_1">
   <g id="patch_2">
    <path d="M 57.6 307.584 
L 414.72 307.584 
L 414.72 41.472 
L 57.6 41.472 
z
" style="fill:#ffffff;"/>
   </g>
   <g id="matplotlib.axis_1">
    <g id="xtick_1">
     <g id="line2d_1">
      <path clip-path="url(#p4b5ea7f201)" d="M 73.832727 307.584 
L 73.832727 41.472 
" style="fill:none;stroke:#b0b0b0;stroke-linecap:square;stroke-width:0.8;"/>
     </g>
     <g id="line2d_2">
      <defs>
       <path d="M 0 0 
L 0 3.5 
" id="mff44e549fa" style="stroke:#000000;stroke-width:0.8;"/>
      </defs>
      <g>
       <use style="stroke:#000000;stroke-width:0.8;" x="73.832727" xlink:href="#mff44e549fa" y="307.584"/>
      </g>
     </g>
     <g id="text_1">
      <!-- 0 -->
      <defs>
       <path d="M 31.78125 66.40625 
Q 24.171875 66.40625 20.328125 58.90625 
Q 16.5 51.421875 16.5 36.375 
Q 16.5 21.390625 20.328125 13.890625 
Q 24.171875 6.390625 31.78125 6.390625 
Q 39.453125 6.390625 43.28125 13.890625 
Q 47.125 21.390625 47.125 36.375 
Q 47.125 51.421875 43.28125 58.90625 
Q 39.453125 66.40625 31.78125 66.40625 
z
M 31.78125 74.21875 
Q 44.046875 74.21875 50.515625 64.515625 
Q 56.984375 54.828125 56.984375 36.375 
Q 56.984375 17.96875 50.515625 8.265625 
Q 44.046875 -1.421875 31.78125 -1.421875 
Q 19.53125 -1.421875 13.0625 8.265625 
Q 6.59375 17.96875 6.59375 36.375 
Q 6.59375 54.828125 13.0625 64.515625 
Q 19.53125 74.21875 31.78125 74.21875 
z
" id="DejaVuSans-48"/>
      </defs>
      <g transform="translate(70.651477 322.182437)scale(0.1 -0.1)">
       <use xlink:href="#DejaVuSans-48"/>
      </g>
     </g>
    </g>
    <g id="xtick_2">
     <g id="line2d_3">
      <path clip-path="url(#p4b5ea7f201)" d="M 138.776625 307.584 
L 138.776625 41.472 
" style="fill:none;stroke:#b0b0b0;stroke-linecap:square;stroke-width:0.8;"/>
     </g>
     <g id="line2d_4">
      <g>
       <use style="stroke:#000000;stroke-width:0.8;" x="138.776625" xlink:href="#mff44e549fa" y="307.584"/>
      </g>
     </g>
     <g id="text_2">
      <!-- 1000 -->
      <defs>
       <path d="M 12.40625 8.296875 
L 28.515625 8.296875 
L 28.515625 63.921875 
L 10.984375 60.40625 
L 10.984375 69.390625 
L 28.421875 72.90625 
L 38.28125 72.90625 
L 38.28125 8.296875 
L 54.390625 8.296875 
L 54.390625 0 
L 12.40625 0 
z
" id="DejaVuSans-49"/>
      </defs>
      <g transform="translate(126.051625 322.182437)scale(0.1 -0.1)">
       <use xlink:href="#DejaVuSans-49"/>
       <use x="63.623047" xlink:href="#DejaVuSans-48"/>
       <use x="127.246094" xlink:href="#DejaVuSans-48"/>
       <use x="190.869141" xlink:href="#DejaVuSans-48"/>
      </g>
     </g>
    </g>
    <g id="xtick_3">
     <g id="line2d_5">
      <path clip-path="url(#p4b5ea7f201)" d="M 203.720523 307.584 
L 203.720523 41.472 
" style="fill:none;stroke:#b0b0b0;stroke-linecap:square;stroke-width:0.8;"/>
     </g>
     <g id="line2d_6">
      <g>
       <use style="stroke:#000000;stroke-width:0.8;" x="203.720523" xlink:href="#mff44e549fa" y="307.584"/>
      </g>
     </g>
     <g id="text_3">
      <!-- 2000 -->
      <defs>
       <path d="M 19.1875 8.296875 
L 53.609375 8.296875 
L 53.609375 0 
L 7.328125 0 
L 7.328125 8.296875 
Q 12.9375 14.109375 22.625 23.890625 
Q 32.328125 33.6875 34.8125 36.53125 
Q 39.546875 41.84375 41.421875 45.53125 
Q 43.3125 49.21875 43.3125 52.78125 
Q 43.3125 58.59375 39.234375 62.25 
Q 35.15625 65.921875 28.609375 65.921875 
Q 23.96875 65.921875 18.8125 64.3125 
Q 13.671875 62.703125 7.8125 59.421875 
L 7.8125 69.390625 
Q 13.765625 71.78125 18.9375 73 
Q 24.125 74.21875 28.421875 74.21875 
Q 39.75 74.21875 46.484375 68.546875 
Q 53.21875 62.890625 53.21875 53.421875 
Q 53.21875 48.921875 51.53125 44.890625 
Q 49.859375 40.875 45.40625 35.40625 
Q 44.1875 33.984375 37.640625 27.21875 
Q 31.109375 20.453125 19.1875 8.296875 
z
" id="DejaVuSans-50"/>
      </defs>
      <g transform="translate(190.995523 322.182437)scale(0.1 -0.1)">
       <use xlink:href="#DejaVuSans-50"/>
       <use x="63.623047" xlink:href="#DejaVuSans-48"/>
       <use x="127.246094" xlink:href="#DejaVuSans-48"/>
       <use x="190.869141" xlink:href="#DejaVuSans-48"/>
      </g>
     </g>
    </g>
    <g id="xtick_4">
     <g id="line2d_7">
      <path clip-path="url(#p4b5ea7f201)" d="M 268.664421 307.584 
L 268.664421 41.472 
" style="fill:none;stroke:#b0b0b0;stroke-linecap:square;stroke-width:0.8;"/>
     </g>
     <g id="line2d_8">
      <g>
       <use style="stroke:#000000;stroke-width:0.8;" x="268.664421" xlink:href="#mff44e549fa" y="307.584"/>
      </g>
     </g>
     <g id="text_4">
      <!-- 3000 -->
      <defs>
       <path d="M 40.578125 39.3125 
Q 47.65625 37.796875 51.625 33 
Q 55.609375 28.21875 55.609375 21.1875 
Q 55.609375 10.40625 48.1875 4.484375 
Q 40.765625 -1.421875 27.09375 -1.421875 
Q 22.515625 -1.421875 17.65625 -0.515625 
Q 12.796875 0.390625 7.625 2.203125 
L 7.625 11.71875 
Q 11.71875 9.328125 16.59375 8.109375 
Q 21.484375 6.890625 26.8125 6.890625 
Q 36.078125 6.890625 40.9375 10.546875 
Q 45.796875 14.203125 45.796875 21.1875 
Q 45.796875 27.640625 41.28125 31.265625 
Q 36.765625 34.90625 28.71875 34.90625 
L 20.21875 34.90625 
L 20.21875 43.015625 
L 29.109375 43.015625 
Q 36.375 43.015625 40.234375 45.921875 
Q 44.09375 48.828125 44.09375 54.296875 
Q 44.09375 59.90625 40.109375 62.90625 
Q 36.140625 65.921875 28.71875 65.921875 
Q 24.65625 65.921875 20.015625 65.03125 
Q 15.375 64.15625 9.8125 62.3125 
L 9.8125 71.09375 
Q 15.4375 72.65625 20.34375 73.4375 
Q 25.25 74.21875 29.59375 74.21875 
Q 40.828125 74.21875 47.359375 69.109375 
Q 53.90625 64.015625 53.90625 55.328125 
Q 53.90625 49.265625 50.4375 45.09375 
Q 46.96875 40.921875 40.578125 39.3125 
z
" id="DejaVuSans-51"/>
      </defs>
      <g transform="translate(255.939421 322.182437)scale(0.1 -0.1)">
       <use xlink:href="#DejaVuSans-51"/>
       <use x="63.623047" xlink:href="#DejaVuSans-48"/>
       <use x="127.246094" xlink:href="#DejaVuSans-48"/>
       <use x="190.869141" xlink:href="#DejaVuSans-48"/>
      </g>
     </g>
    </g>
    <g id="xtick_5">
     <g id="line2d_9">
      <path clip-path="url(#p4b5ea7f201)" d="M 333.608319 307.584 
L 333.608319 41.472 
" style="fill:none;stroke:#b0b0b0;stroke-linecap:square;stroke-width:0.8;"/>
     </g>
     <g id="line2d_10">
      <g>
       <use style="stroke:#000000;stroke-width:0.8;" x="333.608319" xlink:href="#mff44e549fa" y="307.584"/>
      </g>
     </g>
     <g id="text_5">
      <!-- 4000 -->
      <defs>
       <path d="M 37.796875 64.3125 
L 12.890625 25.390625 
L 37.796875 25.390625 
z
M 35.203125 72.90625 
L 47.609375 72.90625 
L 47.609375 25.390625 
L 58.015625 25.390625 
L 58.015625 17.1875 
L 47.609375 17.1875 
L 47.609375 0 
L 37.796875 0 
L 37.796875 17.1875 
L 4.890625 17.1875 
L 4.890625 26.703125 
z
" id="DejaVuSans-52"/>
      </defs>
      <g transform="translate(320.883319 322.182437)scale(0.1 -0.1)">
       <use xlink:href="#DejaVuSans-52"/>
       <use x="63.623047" xlink:href="#DejaVuSans-48"/>
       <use x="127.246094" xlink:href="#DejaVuSans-48"/>
       <use x="190.869141" xlink:href="#DejaVuSans-48"/>
      </g>
     </g>
    </g>
    <g id="xtick_6">
     <g id="line2d_11">
      <path clip-path="url(#p4b5ea7f201)" d="M 398.552217 307.584 
L 398.552217 41.472 
" style="fill:none;stroke:#b0b0b0;stroke-linecap:square;stroke-width:0.8;"/>
     </g>
     <g id="line2d_12">
      <g>
       <use style="stroke:#000000;stroke-width:0.8;" x="398.552217" xlink:href="#mff44e549fa" y="307.584"/>
      </g>
     </g>
     <g id="text_6">
      <!-- 5000 -->
      <defs>
       <path d="M 10.796875 72.90625 
L 49.515625 72.90625 
L 49.515625 64.59375 
L 19.828125 64.59375 
L 19.828125 46.734375 
Q 21.96875 47.46875 24.109375 47.828125 
Q 26.265625 48.1875 28.421875 48.1875 
Q 40.625 48.1875 47.75 41.5 
Q 54.890625 34.8125 54.890625 23.390625 
Q 54.890625 11.625 47.5625 5.09375 
Q 40.234375 -1.421875 26.90625 -1.421875 
Q 22.3125 -1.421875 17.546875 -0.640625 
Q 12.796875 0.140625 7.71875 1.703125 
L 7.71875 11.625 
Q 12.109375 9.234375 16.796875 8.0625 
Q 21.484375 6.890625 26.703125 6.890625 
Q 35.15625 6.890625 40.078125 11.328125 
Q 45.015625 15.765625 45.015625 23.390625 
Q 45.015625 31 40.078125 35.4375 
Q 35.15625 39.890625 26.703125 39.890625 
Q 22.75 39.890625 18.8125 39.015625 
Q 14.890625 38.140625 10.796875 36.28125 
z
" id="DejaVuSans-53"/>
      </defs>
      <g transform="translate(385.827217 322.182437)scale(0.1 -0.1)">
       <use xlink:href="#DejaVuSans-53"/>
       <use x="63.623047" xlink:href="#DejaVuSans-48"/>
       <use x="127.246094" xlink:href="#DejaVuSans-48"/>
       <use x="190.869141" xlink:href="#DejaVuSans-48"/>
      </g>
     </g>
    </g>
    <g id="text_7">
     <!-- Epoch -->
     <defs>
      <path d="M 9.8125 72.90625 
L 55.90625 72.90625 
L 55.90625 64.59375 
L 19.671875 64.59375 
L 19.671875 43.015625 
L 54.390625 43.015625 
L 54.390625 34.71875 
L 19.671875 34.71875 
L 19.671875 8.296875 
L 56.78125 8.296875 
L 56.78125 0 
L 9.8125 0 
z
" id="DejaVuSans-69"/>
      <path d="M 18.109375 8.203125 
L 18.109375 -20.796875 
L 9.078125 -20.796875 
L 9.078125 54.6875 
L 18.109375 54.6875 
L 18.109375 46.390625 
Q 20.953125 51.265625 25.265625 53.625 
Q 29.59375 56 35.59375 56 
Q 45.5625 56 51.78125 48.09375 
Q 58.015625 40.1875 58.015625 27.296875 
Q 58.015625 14.40625 51.78125 6.484375 
Q 45.5625 -1.421875 35.59375 -1.421875 
Q 29.59375 -1.421875 25.265625 0.953125 
Q 20.953125 3.328125 18.109375 8.203125 
z
M 48.6875 27.296875 
Q 48.6875 37.203125 44.609375 42.84375 
Q 40.53125 48.484375 33.40625 48.484375 
Q 26.265625 48.484375 22.1875 42.84375 
Q 18.109375 37.203125 18.109375 27.296875 
Q 18.109375 17.390625 22.1875 11.75 
Q 26.265625 6.109375 33.40625 6.109375 
Q 40.53125 6.109375 44.609375 11.75 
Q 48.6875 17.390625 48.6875 27.296875 
z
" id="DejaVuSans-112"/>
      <path d="M 30.609375 48.390625 
Q 23.390625 48.390625 19.1875 42.75 
Q 14.984375 37.109375 14.984375 27.296875 
Q 14.984375 17.484375 19.15625 11.84375 
Q 23.34375 6.203125 30.609375 6.203125 
Q 37.796875 6.203125 41.984375 11.859375 
Q 46.1875 17.53125 46.1875 27.296875 
Q 46.1875 37.015625 41.984375 42.703125 
Q 37.796875 48.390625 30.609375 48.390625 
z
M 30.609375 56 
Q 42.328125 56 49.015625 48.375 
Q 55.71875 40.765625 55.71875 27.296875 
Q 55.71875 13.875 49.015625 6.21875 
Q 42.328125 -1.421875 30.609375 -1.421875 
Q 18.84375 -1.421875 12.171875 6.21875 
Q 5.515625 13.875 5.515625 27.296875 
Q 5.515625 40.765625 12.171875 48.375 
Q 18.84375 56 30.609375 56 
z
" id="DejaVuSans-111"/>
      <path d="M 48.78125 52.59375 
L 48.78125 44.1875 
Q 44.96875 46.296875 41.140625 47.34375 
Q 37.3125 48.390625 33.40625 48.390625 
Q 24.65625 48.390625 19.8125 42.84375 
Q 14.984375 37.3125 14.984375 27.296875 
Q 14.984375 17.28125 19.8125 11.734375 
Q 24.65625 6.203125 33.40625 6.203125 
Q 37.3125 6.203125 41.140625 7.25 
Q 44.96875 8.296875 48.78125 10.40625 
L 48.78125 2.09375 
Q 45.015625 0.34375 40.984375 -0.53125 
Q 36.96875 -1.421875 32.421875 -1.421875 
Q 20.0625 -1.421875 12.78125 6.34375 
Q 5.515625 14.109375 5.515625 27.296875 
Q 5.515625 40.671875 12.859375 48.328125 
Q 20.21875 56 33.015625 56 
Q 37.15625 56 41.109375 55.140625 
Q 45.0625 54.296875 48.78125 52.59375 
z
" id="DejaVuSans-99"/>
      <path d="M 54.890625 33.015625 
L 54.890625 0 
L 45.90625 0 
L 45.90625 32.71875 
Q 45.90625 40.484375 42.875 44.328125 
Q 39.84375 48.1875 33.796875 48.1875 
Q 26.515625 48.1875 22.3125 43.546875 
Q 18.109375 38.921875 18.109375 30.90625 
L 18.109375 0 
L 9.078125 0 
L 9.078125 75.984375 
L 18.109375 75.984375 
L 18.109375 46.1875 
Q 21.34375 51.125 25.703125 53.5625 
Q 30.078125 56 35.796875 56 
Q 45.21875 56 50.046875 50.171875 
Q 54.890625 44.34375 54.890625 33.015625 
z
" id="DejaVuSans-104"/>
     </defs>
     <g transform="translate(220.849063 335.860562)scale(0.1 -0.1)">
      <use xlink:href="#DejaVuSans-69"/>
      <use x="63.183594" xlink:href="#DejaVuSans-112"/>
      <use x="126.660156" xlink:href="#DejaVuSans-111"/>
      <use x="187.841797" xlink:href="#DejaVuSans-99"/>
      <use x="242.822266" xlink:href="#DejaVuSans-104"/>
     </g>
    </g>
   </g>
   <g id="matplotlib.axis_2">
    <g id="ytick_1">
     <g id="line2d_13">
      <path clip-path="url(#p4b5ea7f201)" d="M 57.6 302.808998 
L 414.72 302.808998 
" style="fill:none;stroke:#b0b0b0;stroke-linecap:square;stroke-width:0.8;"/>
     </g>
     <g id="line2d_14">
      <defs>
       <path d="M 0 0 
L -3.5 0 
" id="ma25b3074c5" style="stroke:#000000;stroke-width:0.8;"/>
      </defs>
      <g>
       <use style="stroke:#000000;stroke-width:0.8;" x="57.6" xlink:href="#ma25b3074c5" y="302.808998"/>
      </g>
     </g>
     <g id="text_8">
      <!-- 0.2 -->
      <defs>
       <path d="M 10.6875 12.40625 
L 21 12.40625 
L 21 0 
L 10.6875 0 
z
" id="DejaVuSans-46"/>
      </defs>
      <g transform="translate(34.696875 306.608217)scale(0.1 -0.1)">
       <use xlink:href="#DejaVuSans-48"/>
       <use x="63.623047" xlink:href="#DejaVuSans-46"/>
       <use x="95.410156" xlink:href="#DejaVuSans-50"/>
      </g>
     </g>
    </g>
    <g id="ytick_2">
     <g id="line2d_15">
      <path clip-path="url(#p4b5ea7f201)" d="M 57.6 264.684036 
L 414.72 264.684036 
" style="fill:none;stroke:#b0b0b0;stroke-linecap:square;stroke-width:0.8;"/>
     </g>
     <g id="line2d_16">
      <g>
       <use style="stroke:#000000;stroke-width:0.8;" x="57.6" xlink:href="#ma25b3074c5" y="264.684036"/>
      </g>
     </g>
     <g id="text_9">
      <!-- 0.3 -->
      <g transform="translate(34.696875 268.483254)scale(0.1 -0.1)">
       <use xlink:href="#DejaVuSans-48"/>
       <use x="63.623047" xlink:href="#DejaVuSans-46"/>
       <use x="95.410156" xlink:href="#DejaVuSans-51"/>
      </g>
     </g>
    </g>
    <g id="ytick_3">
     <g id="line2d_17">
      <path clip-path="url(#p4b5ea7f201)" d="M 57.6 226.559073 
L 414.72 226.559073 
" style="fill:none;stroke:#b0b0b0;stroke-linecap:square;stroke-width:0.8;"/>
     </g>
     <g id="line2d_18">
      <g>
       <use style="stroke:#000000;stroke-width:0.8;" x="57.6" xlink:href="#ma25b3074c5" y="226.559073"/>
      </g>
     </g>
     <g id="text_10">
      <!-- 0.4 -->
      <g transform="translate(34.696875 230.358291)scale(0.1 -0.1)">
       <use xlink:href="#DejaVuSans-48"/>
       <use x="63.623047" xlink:href="#DejaVuSans-46"/>
       <use x="95.410156" xlink:href="#DejaVuSans-52"/>
      </g>
     </g>
    </g>
    <g id="ytick_4">
     <g id="line2d_19">
      <path clip-path="url(#p4b5ea7f201)" d="M 57.6 188.43411 
L 414.72 188.43411 
" style="fill:none;stroke:#b0b0b0;stroke-linecap:square;stroke-width:0.8;"/>
     </g>
     <g id="line2d_20">
      <g>
       <use style="stroke:#000000;stroke-width:0.8;" x="57.6" xlink:href="#ma25b3074c5" y="188.43411"/>
      </g>
     </g>
     <g id="text_11">
      <!-- 0.5 -->
      <g transform="translate(34.696875 192.233328)scale(0.1 -0.1)">
       <use xlink:href="#DejaVuSans-48"/>
       <use x="63.623047" xlink:href="#DejaVuSans-46"/>
       <use x="95.410156" xlink:href="#DejaVuSans-53"/>
      </g>
     </g>
    </g>
    <g id="ytick_5">
     <g id="line2d_21">
      <path clip-path="url(#p4b5ea7f201)" d="M 57.6 150.309147 
L 414.72 150.309147 
" style="fill:none;stroke:#b0b0b0;stroke-linecap:square;stroke-width:0.8;"/>
     </g>
     <g id="line2d_22">
      <g>
       <use style="stroke:#000000;stroke-width:0.8;" x="57.6" xlink:href="#ma25b3074c5" y="150.309147"/>
      </g>
     </g>
     <g id="text_12">
      <!-- 0.6 -->
      <defs>
       <path d="M 33.015625 40.375 
Q 26.375 40.375 22.484375 35.828125 
Q 18.609375 31.296875 18.609375 23.390625 
Q 18.609375 15.53125 22.484375 10.953125 
Q 26.375 6.390625 33.015625 6.390625 
Q 39.65625 6.390625 43.53125 10.953125 
Q 47.40625 15.53125 47.40625 23.390625 
Q 47.40625 31.296875 43.53125 35.828125 
Q 39.65625 40.375 33.015625 40.375 
z
M 52.59375 71.296875 
L 52.59375 62.3125 
Q 48.875 64.0625 45.09375 64.984375 
Q 41.3125 65.921875 37.59375 65.921875 
Q 27.828125 65.921875 22.671875 59.328125 
Q 17.53125 52.734375 16.796875 39.40625 
Q 19.671875 43.65625 24.015625 45.921875 
Q 28.375 48.1875 33.59375 48.1875 
Q 44.578125 48.1875 50.953125 41.515625 
Q 57.328125 34.859375 57.328125 23.390625 
Q 57.328125 12.15625 50.6875 5.359375 
Q 44.046875 -1.421875 33.015625 -1.421875 
Q 20.359375 -1.421875 13.671875 8.265625 
Q 6.984375 17.96875 6.984375 36.375 
Q 6.984375 53.65625 15.1875 63.9375 
Q 23.390625 74.21875 37.203125 74.21875 
Q 40.921875 74.21875 44.703125 73.484375 
Q 48.484375 72.75 52.59375 71.296875 
z
" id="DejaVuSans-54"/>
      </defs>
      <g transform="translate(34.696875 154.108366)scale(0.1 -0.1)">
       <use xlink:href="#DejaVuSans-48"/>
       <use x="63.623047" xlink:href="#DejaVuSans-46"/>
       <use x="95.410156" xlink:href="#DejaVuSans-54"/>
      </g>
     </g>
    </g>
    <g id="ytick_6">
     <g id="line2d_23">
      <path clip-path="url(#p4b5ea7f201)" d="M 57.6 112.184184 
L 414.72 112.184184 
" style="fill:none;stroke:#b0b0b0;stroke-linecap:square;stroke-width:0.8;"/>
     </g>
     <g id="line2d_24">
      <g>
       <use style="stroke:#000000;stroke-width:0.8;" x="57.6" xlink:href="#ma25b3074c5" y="112.184184"/>
      </g>
     </g>
     <g id="text_13">
      <!-- 0.7 -->
      <defs>
       <path d="M 8.203125 72.90625 
L 55.078125 72.90625 
L 55.078125 68.703125 
L 28.609375 0 
L 18.3125 0 
L 43.21875 64.59375 
L 8.203125 64.59375 
z
" id="DejaVuSans-55"/>
      </defs>
      <g transform="translate(34.696875 115.983403)scale(0.1 -0.1)">
       <use xlink:href="#DejaVuSans-48"/>
       <use x="63.623047" xlink:href="#DejaVuSans-46"/>
       <use x="95.410156" xlink:href="#DejaVuSans-55"/>
      </g>
     </g>
    </g>
    <g id="ytick_7">
     <g id="line2d_25">
      <path clip-path="url(#p4b5ea7f201)" d="M 57.6 74.059221 
L 414.72 74.059221 
" style="fill:none;stroke:#b0b0b0;stroke-linecap:square;stroke-width:0.8;"/>
     </g>
     <g id="line2d_26">
      <g>
       <use style="stroke:#000000;stroke-width:0.8;" x="57.6" xlink:href="#ma25b3074c5" y="74.059221"/>
      </g>
     </g>
     <g id="text_14">
      <!-- 0.8 -->
      <defs>
       <path d="M 31.78125 34.625 
Q 24.75 34.625 20.71875 30.859375 
Q 16.703125 27.09375 16.703125 20.515625 
Q 16.703125 13.921875 20.71875 10.15625 
Q 24.75 6.390625 31.78125 6.390625 
Q 38.8125 6.390625 42.859375 10.171875 
Q 46.921875 13.96875 46.921875 20.515625 
Q 46.921875 27.09375 42.890625 30.859375 
Q 38.875 34.625 31.78125 34.625 
z
M 21.921875 38.8125 
Q 15.578125 40.375 12.03125 44.71875 
Q 8.5 49.078125 8.5 55.328125 
Q 8.5 64.0625 14.71875 69.140625 
Q 20.953125 74.21875 31.78125 74.21875 
Q 42.671875 74.21875 48.875 69.140625 
Q 55.078125 64.0625 55.078125 55.328125 
Q 55.078125 49.078125 51.53125 44.71875 
Q 48 40.375 41.703125 38.8125 
Q 48.828125 37.15625 52.796875 32.3125 
Q 56.78125 27.484375 56.78125 20.515625 
Q 56.78125 9.90625 50.3125 4.234375 
Q 43.84375 -1.421875 31.78125 -1.421875 
Q 19.734375 -1.421875 13.25 4.234375 
Q 6.78125 9.90625 6.78125 20.515625 
Q 6.78125 27.484375 10.78125 32.3125 
Q 14.796875 37.15625 21.921875 38.8125 
z
M 18.3125 54.390625 
Q 18.3125 48.734375 21.84375 45.5625 
Q 25.390625 42.390625 31.78125 42.390625 
Q 38.140625 42.390625 41.71875 45.5625 
Q 45.3125 48.734375 45.3125 54.390625 
Q 45.3125 60.0625 41.71875 63.234375 
Q 38.140625 66.40625 31.78125 66.40625 
Q 25.390625 66.40625 21.84375 63.234375 
Q 18.3125 60.0625 18.3125 54.390625 
z
" id="DejaVuSans-56"/>
      </defs>
      <g transform="translate(34.696875 77.85844)scale(0.1 -0.1)">
       <use xlink:href="#DejaVuSans-48"/>
       <use x="63.623047" xlink:href="#DejaVuSans-46"/>
       <use x="95.410156" xlink:href="#DejaVuSans-56"/>
      </g>
     </g>
    </g>
    <g id="text_15">
     <!-- Cost -->
     <defs>
      <path d="M 64.40625 67.28125 
L 64.40625 56.890625 
Q 59.421875 61.53125 53.78125 63.8125 
Q 48.140625 66.109375 41.796875 66.109375 
Q 29.296875 66.109375 22.65625 58.46875 
Q 16.015625 50.828125 16.015625 36.375 
Q 16.015625 21.96875 22.65625 14.328125 
Q 29.296875 6.6875 41.796875 6.6875 
Q 48.140625 6.6875 53.78125 8.984375 
Q 59.421875 11.28125 64.40625 15.921875 
L 64.40625 5.609375 
Q 59.234375 2.09375 53.4375 0.328125 
Q 47.65625 -1.421875 41.21875 -1.421875 
Q 24.65625 -1.421875 15.125 8.703125 
Q 5.609375 18.84375 5.609375 36.375 
Q 5.609375 53.953125 15.125 64.078125 
Q 24.65625 74.21875 41.21875 74.21875 
Q 47.75 74.21875 53.53125 72.484375 
Q 59.328125 70.75 64.40625 67.28125 
z
" id="DejaVuSans-67"/>
      <path d="M 44.28125 53.078125 
L 44.28125 44.578125 
Q 40.484375 46.53125 36.375 47.5 
Q 32.28125 48.484375 27.875 48.484375 
Q 21.1875 48.484375 17.84375 46.4375 
Q 14.5 44.390625 14.5 40.28125 
Q 14.5 37.15625 16.890625 35.375 
Q 19.28125 33.59375 26.515625 31.984375 
L 29.59375 31.296875 
Q 39.15625 29.25 43.1875 25.515625 
Q 47.21875 21.78125 47.21875 15.09375 
Q 47.21875 7.46875 41.1875 3.015625 
Q 35.15625 -1.421875 24.609375 -1.421875 
Q 20.21875 -1.421875 15.453125 -0.5625 
Q 10.6875 0.296875 5.421875 2 
L 5.421875 11.28125 
Q 10.40625 8.6875 15.234375 7.390625 
Q 20.0625 6.109375 24.8125 6.109375 
Q 31.15625 6.109375 34.5625 8.28125 
Q 37.984375 10.453125 37.984375 14.40625 
Q 37.984375 18.0625 35.515625 20.015625 
Q 33.0625 21.96875 24.703125 23.78125 
L 21.578125 24.515625 
Q 13.234375 26.265625 9.515625 29.90625 
Q 5.8125 33.546875 5.8125 39.890625 
Q 5.8125 47.609375 11.28125 51.796875 
Q 16.75 56 26.8125 56 
Q 31.78125 56 36.171875 55.265625 
Q 40.578125 54.546875 44.28125 53.078125 
z
" id="DejaVuSans-115"/>
      <path d="M 18.3125 70.21875 
L 18.3125 54.6875 
L 36.8125 54.6875 
L 36.8125 47.703125 
L 18.3125 47.703125 
L 18.3125 18.015625 
Q 18.3125 11.328125 20.140625 9.421875 
Q 21.96875 7.515625 27.59375 7.515625 
L 36.8125 7.515625 
L 36.8125 0 
L 27.59375 0 
Q 17.1875 0 13.234375 3.875 
Q 9.28125 7.765625 9.28125 18.015625 
L 9.28125 47.703125 
L 2.6875 47.703125 
L 2.6875 54.6875 
L 9.28125 54.6875 
L 9.28125 70.21875 
z
" id="DejaVuSans-116"/>
     </defs>
     <g transform="translate(28.617188 185.643625)rotate(-90)scale(0.1 -0.1)">
      <use xlink:href="#DejaVuSans-67"/>
      <use x="69.824219" xlink:href="#DejaVuSans-111"/>
      <use x="131.005859" xlink:href="#DejaVuSans-115"/>
      <use x="183.105469" xlink:href="#DejaVuSans-116"/>
     </g>
    </g>
   </g>
   <g id="line2d_27">
    <path clip-path="url(#p4b5ea7f201)" d="M 73.832727 53.568 
L 74.482166 158.82839 
L 75.001717 204.948387 
L 75.521269 231.970197 
L 76.105764 250.687857 
L 76.755203 263.564742 
L 77.404642 271.85522 
L 77.989137 276.937395 
L 78.833407 281.800334 
L 79.482846 284.310002 
L 80.392061 286.650875 
L 82.015658 289.012277 
L 83.7042 290.268044 
L 83.963975 290.441193 
L 85.392741 291.086135 
L 86.172068 291.376283 
L 86.626675 291.537472 
L 87.600834 291.799036 
L 87.990497 291.928978 
L 89.743982 292.304358 
L 90.003758 292.383221 
L 91.627355 292.712199 
L 91.757243 292.670104 
L 91.952075 292.744156 
L 92.601514 292.871514 
L 92.666458 292.764468 
L 92.796345 292.865803 
L 93.056121 292.859983 
L 93.250953 292.982606 
L 95.004438 293.188773 
L 95.394101 293.271015 
L 95.783765 293.269897 
L 96.04354 293.329121 
L 96.303316 293.164091 
L 96.36826 293.385028 
L 96.433204 293.355223 
L 96.692979 293.392975 
L 96.952755 293.415715 
L 97.53725 293.453071 
L 97.797026 293.52628 
L 97.991857 293.513767 
L 98.771184 293.564526 
L 98.966016 293.615503 
L 99.290735 293.649642 
L 99.485567 293.667488 
L 99.615455 293.670134 
L 101.498828 293.776482 
L 101.693659 293.842587 
L 101.953435 293.821527 
L 106.629396 294.08319 
L 107.019059 294.08683 
L 107.343779 294.059336 
L 107.668498 294.123105 
L 107.733442 293.990364 
L 107.798386 294.094941 
L 108.967376 294.173931 
L 109.03232 294.043691 
L 109.097264 294.140395 
L 109.162208 294.0543 
L 109.227152 294.140012 
L 109.681759 294.209167 
L 110.20131 294.134302 
L 110.331198 294.19066 
L 110.655917 294.218606 
L 111.110525 294.254708 
L 111.305356 294.206146 
L 111.759964 294.230258 
L 111.954795 294.255576 
L 112.279515 294.248429 
L 112.604234 294.26853 
L 113.708281 294.334009 
L 113.903112 294.269175 
L 114.097944 294.294721 
L 114.292776 294.3069 
L 114.35772 294.220133 
L 114.487607 294.341493 
L 114.682439 294.300462 
L 114.812327 294.332806 
L 114.877271 294.259678 
L 115.007159 294.338473 
L 116.306036 294.352699 
L 116.500868 294.349522 
L 116.760644 294.369467 
L 116.825588 294.221471 
L 116.955475 294.399337 
L 117.215251 294.399332 
L 117.475027 294.40665 
L 117.604914 294.431047 
L 117.929634 294.35425 
L 118.124466 294.433406 
L 118.644017 294.290533 
L 118.838848 294.443219 
L 119.098624 294.442284 
L 119.553231 294.420239 
L 119.748063 294.453204 
L 119.877951 294.375658 
L 120.072783 294.431239 
L 121.631436 294.458235 
L 122.280875 294.505317 
L 122.475707 294.502563 
L 123.449865 294.517768 
L 123.514809 294.443418 
L 123.579753 294.508358 
L 123.709641 294.493705 
L 123.774585 294.365729 
L 123.904473 294.518957 
L 124.488968 294.512726 
L 124.813687 294.539312 
L 125.333238 294.511981 
L 125.52807 294.551742 
L 127.02178 294.575785 
L 127.346499 294.566739 
L 127.411443 294.447498 
L 127.541331 294.548034 
L 127.995938 294.536347 
L 128.19077 294.553614 
L 129.099984 294.58875 
L 129.35976 294.583865 
L 129.489648 294.569896 
L 129.944255 294.592087 
L 131.827628 294.600061 
L 131.892572 294.532469 
L 131.957516 294.641499 
L 132.02246 294.591547 
L 132.087404 294.458509 
L 132.217291 294.635802 
L 132.412123 294.639806 
L 132.736843 294.485051 
L 132.86673 294.633696 
L 133.19145 294.647708 
L 133.386282 294.555055 
L 133.516169 294.646135 
L 133.646057 294.633709 
L 133.970777 294.65522 
L 134.555272 294.603041 
L 134.68516 294.659345 
L 135.009879 294.600607 
L 135.074823 294.676884 
L 135.204711 294.578986 
L 135.789206 294.655582 
L 135.919094 294.629378 
L 136.113925 294.64818 
L 136.503589 294.674086 
L 136.763364 294.606874 
L 137.02314 294.682207 
L 137.412803 294.663999 
L 137.542691 294.661758 
L 137.737523 294.608191 
L 137.867411 294.678336 
L 138.19213 294.705628 
L 138.257074 294.567671 
L 138.322018 294.713356 
L 138.386962 294.655937 
L 138.581793 294.640438 
L 138.711681 294.699564 
L 138.841569 294.674227 
L 145.790566 294.762097 
L 145.85551 294.54259 
L 145.985398 294.763415 
L 146.18023 294.749916 
L 147.089444 294.777614 
L 147.219332 294.737241 
L 147.544051 294.773283 
L 147.673939 294.719108 
L 147.738883 294.651266 
L 147.933715 294.785619 
L 148.648098 294.729536 
L 148.842929 294.799796 
L 148.972817 294.663371 
L 149.167649 294.769794 
L 149.232593 294.784513 
L 149.297537 294.672241 
L 149.36248 294.757225 
L 149.882032 294.765802 
L 151.440685 294.785699 
L 151.570573 294.809254 
L 151.765405 294.62992 
L 151.895293 294.802787 
L 152.155068 294.807591 
L 152.220012 294.706269 
L 152.284956 294.779202 
L 152.414844 294.81821 
L 152.674619 294.776546 
L 152.999339 294.773064 
L 154.168329 294.815391 
L 154.493048 294.780911 
L 154.557992 294.734056 
L 154.622936 294.831707 
L 154.68788 294.71192 
L 154.752824 294.806652 
L 154.947656 294.801533 
L 155.272375 294.83137 
L 155.662039 294.791662 
L 155.85687 294.836496 
L 155.986758 294.784743 
L 156.116646 294.788433 
L 156.571253 294.842296 
L 159.428785 294.813445 
L 159.493729 294.701914 
L 159.623616 294.855064 
L 159.883392 294.855682 
L 160.01328 294.747457 
L 160.208111 294.853924 
L 160.402943 294.791756 
L 160.467887 294.679181 
L 160.532831 294.858426 
L 160.597775 294.784883 
L 161.766765 294.788011 
L 161.831709 294.871157 
L 161.896653 294.769885 
L 162.026541 294.878053 
L 162.091484 294.880711 
L 162.156428 294.716848 
L 162.286316 294.879065 
L 162.416204 294.869045 
L 162.935755 294.851653 
L 163.065643 294.846845 
L 163.260475 294.860424 
L 163.455306 294.851153 
L 163.585194 294.873036 
L 164.68924 294.859321 
L 164.949016 294.881284 
L 165.208792 294.837713 
L 165.403623 294.89542 
L 165.598455 294.867749 
L 165.793287 294.852184 
L 166.312838 294.826611 
L 166.50767 294.909016 
L 166.572613 294.817474 
L 166.637557 294.873832 
L 166.897333 294.852883 
L 167.286996 294.793807 
L 167.481828 294.923714 
L 167.67666 294.85976 
L 167.936435 294.891261 
L 170.079584 294.885718 
L 170.209472 294.897691 
L 170.33936 294.878429 
L 170.469247 294.816035 
L 170.599135 294.858496 
L 170.988798 294.887471 
L 171.313518 294.929792 
L 174.106106 294.906901 
L 174.300937 294.902335 
L 174.365881 294.81532 
L 174.430825 294.88921 
L 175.145208 294.820796 
L 175.210152 294.941691 
L 175.275096 294.858001 
L 175.469927 294.92781 
L 176.703861 294.936163 
L 176.898693 294.763949 
L 177.028581 294.943956 
L 177.288357 294.865368 
L 177.483188 294.934788 
L 177.67802 294.935168 
L 177.872852 294.936749 
L 178.067683 294.826449 
L 178.132627 294.932773 
L 178.197571 294.887948 
L 178.587235 294.946451 
L 178.782066 294.799691 
L 178.911954 294.941935 
L 179.561393 294.91236 
L 179.821169 294.973739 
L 180.016 294.869094 
L 180.275776 294.96985 
L 180.600495 294.82354 
L 180.665439 294.976359 
L 180.730383 294.892362 
L 180.990159 294.965304 
L 181.574654 294.932465 
L 184.237354 294.982336 
L 184.432185 294.920931 
L 184.627017 294.943672 
L 184.756905 294.947876 
L 184.886793 294.914538 
L 185.146568 294.98138 
L 186.250614 294.983992 
L 186.51039 294.965538 
L 186.640278 294.974617 
L 187.419605 294.956794 
L 187.744324 294.971319 
L 187.874212 294.889239 
L 188.069044 294.996398 
L 188.328819 294.976815 
L 188.588595 294.971126 
L 188.913314 294.901628 
L 189.043202 294.937535 
L 189.238034 294.94006 
L 189.302978 294.886209 
L 189.432865 294.992981 
L 189.757585 295.007517 
L 190.926575 294.969346 
L 191.121407 294.997162 
L 191.900734 295.005435 
L 191.965677 294.915472 
L 192.160509 295.01393 
L 193.719163 295.015679 
L 193.784107 294.908339 
L 193.849051 294.977077 
L 193.913994 295.027103 
L 193.978938 294.918245 
L 194.043882 295.019515 
L 194.368602 294.856479 
L 194.49849 295.016945 
L 194.953097 295.002616 
L 195.018041 294.846972 
L 195.082985 294.945001 
L 195.277816 295.005649 
L 195.34276 295.004844 
L 195.407704 294.881777 
L 195.472648 294.986977 
L 195.992199 294.977863 
L 196.057143 294.833772 
L 196.187031 294.994272 
L 196.251975 294.920941 
L 196.316919 295.001119 
L 196.706582 295.013819 
L 197.810628 295.033127 
L 198.135348 295.005897 
L 198.784787 295.023255 
L 198.979618 294.942401 
L 199.369282 295.020466 
L 200.34344 295.013032 
L 200.538272 294.8966 
L 200.733104 295.053822 
L 200.798048 294.933345 
L 200.862992 295.040062 
L 201.967038 295.006445 
L 202.161869 295.040826 
L 202.941196 294.948613 
L 203.136028 295.033552 
L 203.33086 295.019827 
L 203.525691 295.017669 
L 203.785467 295.06002 
L 204.110186 294.986151 
L 204.240074 295.052792 
L 204.305018 294.964152 
L 204.369962 295.038581 
L 204.564794 295.021426 
L 205.474008 295.03074 
L 205.798728 295.056424 
L 205.993559 294.972715 
L 206.253335 295.055749 
L 206.383223 295.058117 
L 206.967718 295.054369 
L 207.097606 294.920098 
L 207.292437 295.033985 
L 207.357381 294.970959 
L 207.422325 295.069678 
L 207.487269 295.021664 
L 207.682101 295.076795 
L 207.876932 294.869958 
L 207.941876 295.07322 
L 208.00682 295.033465 
L 208.786147 295.034012 
L 208.916035 294.984752 
L 209.110867 295.069083 
L 209.435586 295.021498 
L 209.630418 295.042181 
L 211.448847 295.081943 
L 211.578735 294.985722 
L 211.773566 295.059999 
L 211.83851 295.062865 
L 211.903454 294.944477 
L 211.968398 295.044271 
L 212.16323 295.068089 
L 212.228174 294.994043 
L 212.293118 295.059273 
L 213.0075 295.078434 
L 213.072444 294.951101 
L 213.137388 295.049054 
L 213.462108 295.070406 
L 213.656939 295.01124 
L 213.786827 295.080326 
L 213.981659 295.00524 
L 214.046603 295.098472 
L 214.111547 295.02528 
L 214.176491 295.056604 
L 214.306378 294.931754 
L 214.50121 295.087545 
L 214.696042 295.054744 
L 215.020761 295.053853 
L 215.085705 294.978909 
L 215.150649 295.052221 
L 215.280537 295.062869 
L 215.410425 294.980062 
L 215.605256 295.100574 
L 215.99492 295.032541 
L 216.384583 295.072778 
L 216.579415 295.000184 
L 216.774246 295.103087 
L 217.228854 295.019818 
L 217.358742 295.057725 
L 217.488629 294.94343 
L 217.618517 295.077982 
L 217.813349 295.028726 
L 218.073124 295.075725 
L 218.65762 295.00805 
L 218.787507 295.080631 
L 219.047283 295.041628 
L 219.177171 295.084777 
L 219.307059 295.084325 
L 219.50189 295.087032 
L 219.566834 294.977458 
L 219.761666 295.104585 
L 219.956497 295.065315 
L 220.021441 294.891375 
L 220.216273 295.085345 
L 220.67088 295.100745 
L 220.9956 295.113786 
L 221.060544 294.96178 
L 221.125488 295.076572 
L 221.320319 295.04944 
L 221.709983 295.118139 
L 222.034702 295.051865 
L 222.16459 295.058529 
L 222.229534 294.974827 
L 222.294478 295.032362 
L 222.489309 295.093817 
L 222.554253 295.024221 
L 222.619197 295.09621 
L 223.853131 295.121478 
L 224.112907 295.066023 
L 224.372683 295.063454 
L 224.50257 295.095799 
L 224.697402 295.117352 
L 225.022122 295.105415 
L 225.281897 295.086139 
L 225.346841 295.028463 
L 225.411785 295.109148 
L 225.736504 295.119504 
L 225.801448 294.999251 
L 225.866392 295.10912 
L 227.295158 295.090235 
L 227.619877 295.106653 
L 227.814709 295.017986 
L 228.009541 295.135483 
L 228.074485 295.046519 
L 228.139429 295.109307 
L 228.33426 295.108538 
L 228.399204 295.129309 
L 228.464148 294.99014 
L 228.529092 295.08413 
L 228.65898 295.122161 
L 228.788868 295.127683 
L 230.152689 295.113203 
L 230.347521 295.082277 
L 230.672241 295.11496 
L 231.061904 295.11529 
L 231.32168 295.08957 
L 231.516511 295.120812 
L 231.776287 295.145558 
L 231.841231 295.046239 
L 231.906175 295.140166 
L 232.295838 295.086258 
L 232.425726 295.043772 
L 232.750445 295.127135 
L 233.075165 295.038735 
L 233.269997 295.116855 
L 233.724604 295.150027 
L 233.789548 295.027367 
L 233.854492 295.096105 
L 234.179211 295.131841 
L 234.309099 295.100421 
L 234.438987 295.100321 
L 234.633818 295.10563 
L 234.763706 295.132084 
L 234.958538 295.004141 
L 235.088426 295.133463 
L 235.932696 295.107725 
L 236.192472 295.142438 
L 236.582135 295.154742 
L 236.712023 295.093109 
L 236.906855 295.143625 
L 237.101687 294.959379 
L 237.16663 295.138755 
L 237.231574 295.063619 
L 237.49135 295.15899 
L 237.945957 295.113139 
L 239.309779 295.119075 
L 239.374723 295.030348 
L 239.439667 295.078606 
L 239.634499 295.157929 
L 239.82933 295.053308 
L 239.959218 295.118622 
L 240.543713 295.145918 
L 244.180571 295.139326 
L 244.375403 295.164512 
L 244.959898 295.117069 
L 245.089786 295.162954 
L 245.349562 295.156733 
L 245.804169 295.158292 
L 245.869113 295.055567 
L 245.999001 295.157533 
L 248.012261 295.102304 
L 248.077205 295.061267 
L 248.207093 295.176875 
L 255.870473 295.196195 
L 256.065305 295.178761 
L 256.260136 295.201767 
L 256.584856 295.119245 
L 256.714744 295.197889 
L 256.844631 295.175584 
L 257.039463 295.204732 
L 257.299239 295.185857 
L 257.753846 295.059551 
L 257.883734 295.193042 
L 258.468229 295.190008 
L 258.533173 295.072611 
L 258.663061 295.221827 
L 258.98778 295.161201 
L 259.247556 295.222314 
L 259.442387 295.054191 
L 259.637219 295.197306 
L 260.871153 295.183137 
L 261.001041 295.229238 
L 261.260817 295.1194 
L 261.390704 295.215799 
L 261.65048 295.184143 
L 262.040143 295.200284 
L 265.092507 295.188983 
L 265.15745 295.080347 
L 265.352282 295.240024 
L 265.612058 295.168855 
L 265.871833 295.235551 
L 265.936777 295.14065 
L 266.001721 295.21826 
L 266.65116 295.217039 
L 266.910936 295.148606 
L 267.105767 295.203994 
L 267.300599 295.1978 
L 267.495431 295.224392 
L 267.690262 295.187381 
L 268.014982 295.177369 
L 268.209814 295.19656 
L 269.768467 295.241096 
L 269.833411 295.060379 
L 269.898355 295.225453 
L 269.963299 295.18699 
L 270.158131 295.223045 
L 271.716784 295.224531 
L 271.911616 295.245217 
L 272.236335 295.234054 
L 272.431167 295.256085 
L 272.496111 295.120641 
L 272.561055 295.239705 
L 272.755886 295.193181 
L 272.950718 295.244258 
L 273.14555 295.198138 
L 273.405325 295.243809 
L 273.924877 295.244985 
L 274.054764 295.216699 
L 274.249596 295.240197 
L 274.444428 295.230601 
L 274.574316 295.271552 
L 274.639259 295.160715 
L 274.704203 295.216593 
L 274.769147 295.256495 
L 274.834091 295.062571 
L 274.899035 295.191965 
L 274.963979 295.235674 
L 275.028923 295.143672 
L 275.093867 295.231345 
L 275.288698 295.215933 
L 275.613418 295.251561 
L 275.678362 295.157848 
L 275.743306 295.216271 
L 277.042184 295.209188 
L 277.107128 295.092695 
L 277.172072 295.181831 
L 277.951398 295.212995 
L 278.341062 295.242311 
L 278.600837 295.25854 
L 278.730725 295.210447 
L 278.990501 295.270238 
L 279.055445 295.158628 
L 279.120388 295.219834 
L 279.250276 295.246519 
L 279.574996 295.27475 
L 279.63994 295.17337 
L 279.704884 295.215577 
L 280.873874 295.26076 
L 281.068705 295.245978 
L 281.393425 295.195844 
L 281.6532 295.259124 
L 283.017022 295.269881 
L 283.276798 295.28406 
L 283.341742 295.166642 
L 283.406686 295.244446 
L 283.47163 295.300863 
L 283.536573 295.225655 
L 283.926237 295.271581 
L 284.575676 295.238445 
L 284.705564 295.227885 
L 284.770508 295.149738 
L 284.835451 295.297829 
L 284.900395 295.201363 
L 284.965339 295.295896 
L 285.030283 295.236595 
L 285.160171 295.267375 
L 285.290059 295.253154 
L 285.419947 295.238562 
L 292.109168 295.292677 
L 292.174112 295.107223 
L 292.304 295.306724 
L 292.498831 295.292617 
L 292.758607 295.20251 
L 292.823551 295.303285 
L 292.888495 295.237043 
L 293.083326 295.298437 
L 293.343102 295.285864 
L 293.667822 295.287024 
L 294.122429 295.322217 
L 294.382204 295.239745 
L 294.64198 295.315576 
L 294.706924 295.191373 
L 294.771868 295.300355 
L 295.226475 295.304263 
L 295.291419 295.315551 
L 295.356363 295.17393 
L 295.421307 295.270782 
L 296.070746 295.299032 
L 296.265577 295.309217 
L 296.655241 295.299176 
L 296.785129 295.267914 
L 297.694343 295.275061 
L 297.889175 295.296018 
L 298.084007 295.253838 
L 298.47367 295.323128 
L 299.252997 295.250799 
L 299.447828 295.314623 
L 301.006482 295.297457 
L 301.13637 295.320994 
L 301.331202 295.313145 
L 301.526033 295.306489 
L 301.590977 295.18705 
L 301.655921 295.260918 
L 301.850753 295.326962 
L 303.47435 295.259069 
L 303.669182 295.323261 
L 304.253677 295.260634 
L 304.448509 295.339918 
L 304.708284 295.327869 
L 304.773228 295.247982 
L 304.838172 295.302596 
L 305.292779 295.297927 
L 305.422667 295.29421 
L 305.487611 295.334632 
L 305.552555 295.209571 
L 305.617499 295.283095 
L 305.747387 295.317043 
L 305.81233 295.197434 
L 305.877274 295.235853 
L 306.072106 295.266155 
L 306.266938 295.215907 
L 306.396826 295.327492 
L 306.591657 295.312511 
L 306.916377 295.28501 
L 309.189413 295.316375 
L 309.319301 295.269944 
L 309.579077 295.269617 
L 309.64402 295.179413 
L 309.773908 295.340014 
L 314.060205 295.331512 
L 314.774588 295.343609 
L 314.96942 295.324481 
L 321.204034 295.342177 
L 321.46381 295.346081 
L 321.658642 295.322714 
L 321.983361 295.374967 
L 322.502912 295.304377 
L 322.697744 295.367199 
L 322.827632 295.330566 
L 323.022463 295.352566 
L 323.736846 295.29054 
L 323.931678 295.383852 
L 324.256397 295.345401 
L 324.711005 295.370442 
L 325.555275 295.326577 
L 325.750107 295.370807 
L 326.009883 295.355607 
L 326.529434 295.359082 
L 326.659322 295.342033 
L 326.854153 295.371075 
L 326.984041 295.31256 
L 327.308761 295.378019 
L 327.568536 295.319514 
L 328.737526 295.376197 
L 328.80247 295.250158 
L 328.867414 295.344817 
L 329.192134 295.382841 
L 329.581797 295.330378 
L 330.036404 295.400541 
L 330.101348 295.305476 
L 330.166292 295.384213 
L 331.140451 295.377464 
L 332.893936 295.301218 
L 333.023824 295.342015 
L 333.088768 295.381331 
L 333.153711 295.255035 
L 333.283599 295.388123 
L 333.608319 295.338609 
L 333.80315 295.374619 
L 334.12787 295.291191 
L 334.257758 295.357578 
L 334.647421 295.404028 
L 334.777309 295.371329 
L 336.271019 295.389818 
L 336.400906 295.405335 
L 336.46585 295.311136 
L 336.530794 295.399554 
L 336.725626 295.240551 
L 336.920458 295.389637 
L 337.115289 295.221526 
L 337.180233 295.386921 
L 337.245177 295.324218 
L 337.440009 295.405377 
L 337.63484 295.364241 
L 340.752148 295.362843 
L 340.882035 295.406985 
L 341.011923 295.301406 
L 341.141811 295.370655 
L 341.401586 295.382307 
L 343.025184 295.34444 
L 343.220016 295.414077 
L 343.414847 295.378243 
L 343.804511 295.372474 
L 344.064286 295.405072 
L 344.45395 295.352507 
L 344.713725 295.402419 
L 345.038445 295.332585 
L 345.233276 295.40642 
L 345.882715 295.40306 
L 346.467211 295.350386 
L 346.662042 295.362349 
L 347.051706 295.397377 
L 347.246537 295.297375 
L 347.506313 295.379439 
L 347.766088 295.405794 
L 347.96092 295.390766 
L 348.28564 295.425305 
L 348.935079 295.375514 
L 349.259798 295.408133 
L 349.389686 295.361599 
L 349.519574 295.359973 
L 350.948339 295.417832 
L 351.013283 295.337781 
L 351.078227 295.4233 
L 351.402947 295.287885 
L 351.597778 295.393673 
L 353.611039 295.362108 
L 353.805871 295.441712 
L 354.13059 295.362902 
L 354.325422 295.41058 
L 354.520254 295.296441 
L 354.585198 295.402108 
L 354.650142 295.191873 
L 354.715086 295.429329 
L 354.780029 295.364772 
L 354.909917 295.361879 
L 355.819132 295.393446 
L 356.013964 295.353509 
L 356.143851 295.408805 
L 356.273739 295.385083 
L 356.598459 295.425895 
L 356.79329 295.229642 
L 356.923178 295.404605 
L 357.702505 295.33038 
L 357.96228 295.338732 
L 358.157112 295.441617 
L 358.222056 295.33856 
L 358.287 295.438928 
L 358.871495 295.35345 
L 359.131271 295.420604 
L 359.326102 295.319909 
L 359.45599 295.422558 
L 359.520934 295.32553 
L 359.585878 295.407792 
L 360.235317 295.34077 
L 360.300261 295.450695 
L 360.365205 295.386782 
L 360.560036 295.428712 
L 360.754868 295.312906 
L 360.884756 295.413284 
L 361.209475 295.391398 
L 361.404307 295.394102 
L 361.534195 295.427542 
L 361.729027 295.404858 
L 363.027904 295.394768 
L 363.417568 295.409506 
L 363.677343 295.389864 
L 363.872175 295.426233 
L 363.937119 295.424216 
L 364.002063 295.085877 
L 364.067007 295.43131 
L 364.131951 295.40867 
L 364.521614 295.409448 
L 364.651502 295.436106 
L 365.106109 295.354745 
L 365.300941 295.415001 
L 373.159153 295.442574 
L 373.28904 295.467081 
L 373.483872 295.39426 
L 373.61376 295.428174 
L 375.237357 295.415486 
L 375.432189 295.382106 
L 375.886796 295.435768 
L 376.341404 295.411834 
L 376.471291 295.387495 
L 376.601179 295.449991 
L 376.731067 295.409638 
L 376.990843 295.448369 
L 377.510394 295.442077 
L 377.705225 295.339854 
L 377.900057 295.469531 
L 378.094889 295.359026 
L 378.159833 295.44012 
L 378.224777 295.313316 
L 378.28972 295.427188 
L 378.939159 295.413304 
L 379.263879 295.43578 
L 379.978262 295.392622 
L 380.10815 295.427406 
L 380.627701 295.463986 
L 380.822533 295.389207 
L 381.017364 295.433791 
L 384.394447 295.447003 
L 384.459391 295.300303 
L 384.524335 295.418127 
L 384.654222 295.437255 
L 384.719166 295.334608 
L 384.78411 295.378703 
L 385.563437 295.451407 
L 385.823213 295.423587 
L 386.018044 295.430493 
L 386.342764 295.388444 
L 386.407708 295.303878 
L 386.472652 295.391524 
L 387.381866 295.431508 
L 387.77153 295.445341 
L 390.434229 295.421907 
L 390.629061 295.451894 
L 390.758949 295.416173 
L 391.213556 295.477827 
L 391.473332 295.357818 
L 391.733107 295.469877 
L 391.798051 295.368451 
L 391.862995 295.443174 
L 392.382546 295.416346 
L 392.577378 295.463694 
L 394.071088 295.450971 
L 394.330863 295.479468 
L 394.785471 295.392087 
L 394.980302 295.456835 
L 395.045246 295.287645 
L 395.175134 295.456731 
L 395.43491 295.376461 
L 395.499853 295.424794 
L 395.564797 295.27457 
L 395.629741 295.349426 
L 395.824573 295.445286 
L 396.27918 295.448892 
L 396.409068 295.451549 
L 396.6039 295.444878 
L 396.863675 295.371765 
L 397.058507 295.395617 
L 397.188395 295.462055 
L 397.318283 295.426328 
L 397.383226 295.348104 
L 397.44817 295.469333 
L 397.513114 295.405838 
L 397.77289 295.409958 
L 397.837834 295.292448 
L 398.032665 295.457723 
L 398.227497 295.44084 
L 398.357385 295.446087 
L 398.422329 295.317003 
L 398.487273 295.466497 
L 398.487273 295.466497 
" style="fill:none;stroke:#1f77b4;stroke-linecap:square;stroke-width:1.5;"/>
   </g>
   <g id="patch_3">
    <path d="M 57.6 307.584 
L 57.6 41.472 
" style="fill:none;stroke:#000000;stroke-linecap:square;stroke-linejoin:miter;stroke-width:0.8;"/>
   </g>
   <g id="patch_4">
    <path d="M 414.72 307.584 
L 414.72 41.472 
" style="fill:none;stroke:#000000;stroke-linecap:square;stroke-linejoin:miter;stroke-width:0.8;"/>
   </g>
   <g id="patch_5">
    <path d="M 57.6 307.584 
L 414.72 307.584 
" style="fill:none;stroke:#000000;stroke-linecap:square;stroke-linejoin:miter;stroke-width:0.8;"/>
   </g>
   <g id="patch_6">
    <path d="M 57.6 41.472 
L 414.72 41.472 
" style="fill:none;stroke:#000000;stroke-linecap:square;stroke-linejoin:miter;stroke-width:0.8;"/>
   </g>
   <g id="text_16">
    <!-- Cost Function Convergence -->
    <defs>
     <path id="DejaVuSans-32"/>
     <path d="M 9.8125 72.90625 
L 51.703125 72.90625 
L 51.703125 64.59375 
L 19.671875 64.59375 
L 19.671875 43.109375 
L 48.578125 43.109375 
L 48.578125 34.8125 
L 19.671875 34.8125 
L 19.671875 0 
L 9.8125 0 
z
" id="DejaVuSans-70"/>
     <path d="M 8.5 21.578125 
L 8.5 54.6875 
L 17.484375 54.6875 
L 17.484375 21.921875 
Q 17.484375 14.15625 20.5 10.265625 
Q 23.53125 6.390625 29.59375 6.390625 
Q 36.859375 6.390625 41.078125 11.03125 
Q 45.3125 15.671875 45.3125 23.6875 
L 45.3125 54.6875 
L 54.296875 54.6875 
L 54.296875 0 
L 45.3125 0 
L 45.3125 8.40625 
Q 42.046875 3.421875 37.71875 1 
Q 33.40625 -1.421875 27.6875 -1.421875 
Q 18.265625 -1.421875 13.375 4.4375 
Q 8.5 10.296875 8.5 21.578125 
z
M 31.109375 56 
z
" id="DejaVuSans-117"/>
     <path d="M 54.890625 33.015625 
L 54.890625 0 
L 45.90625 0 
L 45.90625 32.71875 
Q 45.90625 40.484375 42.875 44.328125 
Q 39.84375 48.1875 33.796875 48.1875 
Q 26.515625 48.1875 22.3125 43.546875 
Q 18.109375 38.921875 18.109375 30.90625 
L 18.109375 0 
L 9.078125 0 
L 9.078125 54.6875 
L 18.109375 54.6875 
L 18.109375 46.1875 
Q 21.34375 51.125 25.703125 53.5625 
Q 30.078125 56 35.796875 56 
Q 45.21875 56 50.046875 50.171875 
Q 54.890625 44.34375 54.890625 33.015625 
z
" id="DejaVuSans-110"/>
     <path d="M 9.421875 54.6875 
L 18.40625 54.6875 
L 18.40625 0 
L 9.421875 0 
z
M 9.421875 75.984375 
L 18.40625 75.984375 
L 18.40625 64.59375 
L 9.421875 64.59375 
z
" id="DejaVuSans-105"/>
     <path d="M 2.984375 54.6875 
L 12.5 54.6875 
L 29.59375 8.796875 
L 46.6875 54.6875 
L 56.203125 54.6875 
L 35.6875 0 
L 23.484375 0 
z
" id="DejaVuSans-118"/>
     <path d="M 56.203125 29.59375 
L 56.203125 25.203125 
L 14.890625 25.203125 
Q 15.484375 15.921875 20.484375 11.0625 
Q 25.484375 6.203125 34.421875 6.203125 
Q 39.59375 6.203125 44.453125 7.46875 
Q 49.3125 8.734375 54.109375 11.28125 
L 54.109375 2.78125 
Q 49.265625 0.734375 44.1875 -0.34375 
Q 39.109375 -1.421875 33.890625 -1.421875 
Q 20.796875 -1.421875 13.15625 6.1875 
Q 5.515625 13.8125 5.515625 26.8125 
Q 5.515625 40.234375 12.765625 48.109375 
Q 20.015625 56 32.328125 56 
Q 43.359375 56 49.78125 48.890625 
Q 56.203125 41.796875 56.203125 29.59375 
z
M 47.21875 32.234375 
Q 47.125 39.59375 43.09375 43.984375 
Q 39.0625 48.390625 32.421875 48.390625 
Q 24.90625 48.390625 20.390625 44.140625 
Q 15.875 39.890625 15.1875 32.171875 
z
" id="DejaVuSans-101"/>
     <path d="M 41.109375 46.296875 
Q 39.59375 47.171875 37.8125 47.578125 
Q 36.03125 48 33.890625 48 
Q 26.265625 48 22.1875 43.046875 
Q 18.109375 38.09375 18.109375 28.8125 
L 18.109375 0 
L 9.078125 0 
L 9.078125 54.6875 
L 18.109375 54.6875 
L 18.109375 46.1875 
Q 20.953125 51.171875 25.484375 53.578125 
Q 30.03125 56 36.53125 56 
Q 37.453125 56 38.578125 55.875 
Q 39.703125 55.765625 41.0625 55.515625 
z
" id="DejaVuSans-114"/>
     <path d="M 45.40625 27.984375 
Q 45.40625 37.75 41.375 43.109375 
Q 37.359375 48.484375 30.078125 48.484375 
Q 22.859375 48.484375 18.828125 43.109375 
Q 14.796875 37.75 14.796875 27.984375 
Q 14.796875 18.265625 18.828125 12.890625 
Q 22.859375 7.515625 30.078125 7.515625 
Q 37.359375 7.515625 41.375 12.890625 
Q 45.40625 18.265625 45.40625 27.984375 
z
M 54.390625 6.78125 
Q 54.390625 -7.171875 48.1875 -13.984375 
Q 42 -20.796875 29.203125 -20.796875 
Q 24.46875 -20.796875 20.265625 -20.09375 
Q 16.0625 -19.390625 12.109375 -17.921875 
L 12.109375 -9.1875 
Q 16.0625 -11.328125 19.921875 -12.34375 
Q 23.78125 -13.375 27.78125 -13.375 
Q 36.625 -13.375 41.015625 -8.765625 
Q 45.40625 -4.15625 45.40625 5.171875 
L 45.40625 9.625 
Q 42.625 4.78125 38.28125 2.390625 
Q 33.9375 0 27.875 0 
Q 17.828125 0 11.671875 7.65625 
Q 5.515625 15.328125 5.515625 27.984375 
Q 5.515625 40.671875 11.671875 48.328125 
Q 17.828125 56 27.875 56 
Q 33.9375 56 38.28125 53.609375 
Q 42.625 51.21875 45.40625 46.390625 
L 45.40625 54.6875 
L 54.390625 54.6875 
z
" id="DejaVuSans-103"/>
    </defs>
    <g transform="translate(153.927188 35.472)scale(0.12 -0.12)">
     <use xlink:href="#DejaVuSans-67"/>
     <use x="69.824219" xlink:href="#DejaVuSans-111"/>
     <use x="131.005859" xlink:href="#DejaVuSans-115"/>
     <use x="183.105469" xlink:href="#DejaVuSans-116"/>
     <use x="222.314453" xlink:href="#DejaVuSans-32"/>
     <use x="254.101562" xlink:href="#DejaVuSans-70"/>
     <use x="306.121094" xlink:href="#DejaVuSans-117"/>
     <use x="369.5" xlink:href="#DejaVuSans-110"/>
     <use x="432.878906" xlink:href="#DejaVuSans-99"/>
     <use x="487.859375" xlink:href="#DejaVuSans-116"/>
     <use x="527.068359" xlink:href="#DejaVuSans-105"/>
     <use x="554.851562" xlink:href="#DejaVuSans-111"/>
     <use x="616.033203" xlink:href="#DejaVuSans-110"/>
     <use x="679.412109" xlink:href="#DejaVuSans-32"/>
     <use x="711.199219" xlink:href="#DejaVuSans-67"/>
     <use x="781.023438" xlink:href="#DejaVuSans-111"/>
     <use x="842.205078" xlink:href="#DejaVuSans-110"/>
     <use x="905.583984" xlink:href="#DejaVuSans-118"/>
     <use x="964.763672" xlink:href="#DejaVuSans-101"/>
     <use x="1026.287109" xlink:href="#DejaVuSans-114"/>
     <use x="1065.650391" xlink:href="#DejaVuSans-103"/>
     <use x="1129.126953" xlink:href="#DejaVuSans-101"/>
     <use x="1190.650391" xlink:href="#DejaVuSans-110"/>
     <use x="1254.029297" xlink:href="#DejaVuSans-99"/>
     <use x="1309.009766" xlink:href="#DejaVuSans-101"/>
    </g>
   </g>
  </g>
 </g>
 <defs>
  <clipPath id="p4b5ea7f201">
   <rect height="266.112" width="357.12" x="57.6" y="41.472"/>
  </clipPath>
 </defs>
</svg>
