<?xml version="1.0" encoding="utf-8" standalone="no"?>
<!DOCTYPE svg PUBLIC "-//W3C//DTD SVG 1.1//EN"
  "http://www.w3.org/Graphics/SVG/1.1/DTD/svg11.dtd">
<!-- Created with matplotlib (https://matplotlib.org/) -->
<svg height="345.6pt" version="1.1" viewBox="0 0 460.8 345.6" width="460.8pt" xmlns="http://www.w3.org/2000/svg" xmlns:xlink="http://www.w3.org/1999/xlink">
 <defs>
  <style type="text/css">
*{stroke-linecap:butt;stroke-linejoin:round;}
  </style>
 </defs>
 <g id="figure_1">
  <g id="patch_1">
   <path d="M 0 345.6 
L 460.8 345.6 
L 460.8 0 
L 0 0 
z
" style="fill:#ffffff;"/>
  </g>
  <g id="axes_1">
   <g id="patch_2">
    <path d="M 57.6 307.584 
L 414.72 307.584 
L 414.72 41.472 
L 57.6 41.472 
z
" style="fill:#ffffff;"/>
   </g>
   <g id="matplotlib.axis_1">
    <g id="xtick_1">
     <g id="line2d_1">
      <defs>
       <path d="M 0 0 
L 0 3.5 
" id="mf92f928854" style="stroke:#000000;stroke-width:0.8;"/>
      </defs>
      <g>
       <use style="stroke:#000000;stroke-width:0.8;" x="57.6" xlink:href="#mf92f928854" y="307.584"/>
      </g>
     </g>
     <g id="text_1">
      <!-- −10.0 -->
      <defs>
       <path d="M 10.59375 35.5 
L 73.1875 35.5 
L 73.1875 27.203125 
L 10.59375 27.203125 
z
" id="DejaVuSans-8722"/>
       <path d="M 12.40625 8.296875 
L 28.515625 8.296875 
L 28.515625 63.921875 
L 10.984375 60.40625 
L 10.984375 69.390625 
L 28.421875 72.90625 
L 38.28125 72.90625 
L 38.28125 8.296875 
L 54.390625 8.296875 
L 54.390625 0 
L 12.40625 0 
z
" id="DejaVuSans-49"/>
       <path d="M 31.78125 66.40625 
Q 24.171875 66.40625 20.328125 58.90625 
Q 16.5 51.421875 16.5 36.375 
Q 16.5 21.390625 20.328125 13.890625 
Q 24.171875 6.390625 31.78125 6.390625 
Q 39.453125 6.390625 43.28125 13.890625 
Q 47.125 21.390625 47.125 36.375 
Q 47.125 51.421875 43.28125 58.90625 
Q 39.453125 66.40625 31.78125 66.40625 
z
M 31.78125 74.21875 
Q 44.046875 74.21875 50.515625 64.515625 
Q 56.984375 54.828125 56.984375 36.375 
Q 56.984375 17.96875 50.515625 8.265625 
Q 44.046875 -1.421875 31.78125 -1.421875 
Q 19.53125 -1.421875 13.0625 8.265625 
Q 6.59375 17.96875 6.59375 36.375 
Q 6.59375 54.828125 13.0625 64.515625 
Q 19.53125 74.21875 31.78125 74.21875 
z
" id="DejaVuSans-48"/>
       <path d="M 10.6875 12.40625 
L 21 12.40625 
L 21 0 
L 10.6875 0 
z
" id="DejaVuSans-46"/>
      </defs>
      <g transform="translate(42.277344 322.182437)scale(0.1 -0.1)">
       <use xlink:href="#DejaVuSans-8722"/>
       <use x="83.789062" xlink:href="#DejaVuSans-49"/>
       <use x="147.412109" xlink:href="#DejaVuSans-48"/>
       <use x="211.035156" xlink:href="#DejaVuSans-46"/>
       <use x="242.822266" xlink:href="#DejaVuSans-48"/>
      </g>
     </g>
    </g>
    <g id="xtick_2">
     <g id="line2d_2">
      <g>
       <use style="stroke:#000000;stroke-width:0.8;" x="102.24" xlink:href="#mf92f928854" y="307.584"/>
      </g>
     </g>
     <g id="text_2">
      <!-- −7.5 -->
      <defs>
       <path d="M 8.203125 72.90625 
L 55.078125 72.90625 
L 55.078125 68.703125 
L 28.609375 0 
L 18.3125 0 
L 43.21875 64.59375 
L 8.203125 64.59375 
z
" id="DejaVuSans-55"/>
       <path d="M 10.796875 72.90625 
L 49.515625 72.90625 
L 49.515625 64.59375 
L 19.828125 64.59375 
L 19.828125 46.734375 
Q 21.96875 47.46875 24.109375 47.828125 
Q 26.265625 48.1875 28.421875 48.1875 
Q 40.625 48.1875 47.75 41.5 
Q 54.890625 34.8125 54.890625 23.390625 
Q 54.890625 11.625 47.5625 5.09375 
Q 40.234375 -1.421875 26.90625 -1.421875 
Q 22.3125 -1.421875 17.546875 -0.640625 
Q 12.796875 0.140625 7.71875 1.703125 
L 7.71875 11.625 
Q 12.109375 9.234375 16.796875 8.0625 
Q 21.484375 6.890625 26.703125 6.890625 
Q 35.15625 6.890625 40.078125 11.328125 
Q 45.015625 15.765625 45.015625 23.390625 
Q 45.015625 31 40.078125 35.4375 
Q 35.15625 39.890625 26.703125 39.890625 
Q 22.75 39.890625 18.8125 39.015625 
Q 14.890625 38.140625 10.796875 36.28125 
z
" id="DejaVuSans-53"/>
      </defs>
      <g transform="translate(90.098594 322.182437)scale(0.1 -0.1)">
       <use xlink:href="#DejaVuSans-8722"/>
       <use x="83.789062" xlink:href="#DejaVuSans-55"/>
       <use x="147.412109" xlink:href="#DejaVuSans-46"/>
       <use x="179.199219" xlink:href="#DejaVuSans-53"/>
      </g>
     </g>
    </g>
    <g id="xtick_3">
     <g id="line2d_3">
      <g>
       <use style="stroke:#000000;stroke-width:0.8;" x="146.88" xlink:href="#mf92f928854" y="307.584"/>
      </g>
     </g>
     <g id="text_3">
      <!-- −5.0 -->
      <g transform="translate(134.738594 322.182437)scale(0.1 -0.1)">
       <use xlink:href="#DejaVuSans-8722"/>
       <use x="83.789062" xlink:href="#DejaVuSans-53"/>
       <use x="147.412109" xlink:href="#DejaVuSans-46"/>
       <use x="179.199219" xlink:href="#DejaVuSans-48"/>
      </g>
     </g>
    </g>
    <g id="xtick_4">
     <g id="line2d_4">
      <g>
       <use style="stroke:#000000;stroke-width:0.8;" x="191.52" xlink:href="#mf92f928854" y="307.584"/>
      </g>
     </g>
     <g id="text_4">
      <!-- −2.5 -->
      <defs>
       <path d="M 19.1875 8.296875 
L 53.609375 8.296875 
L 53.609375 0 
L 7.328125 0 
L 7.328125 8.296875 
Q 12.9375 14.109375 22.625 23.890625 
Q 32.328125 33.6875 34.8125 36.53125 
Q 39.546875 41.84375 41.421875 45.53125 
Q 43.3125 49.21875 43.3125 52.78125 
Q 43.3125 58.59375 39.234375 62.25 
Q 35.15625 65.921875 28.609375 65.921875 
Q 23.96875 65.921875 18.8125 64.3125 
Q 13.671875 62.703125 7.8125 59.421875 
L 7.8125 69.390625 
Q 13.765625 71.78125 18.9375 73 
Q 24.125 74.21875 28.421875 74.21875 
Q 39.75 74.21875 46.484375 68.546875 
Q 53.21875 62.890625 53.21875 53.421875 
Q 53.21875 48.921875 51.53125 44.890625 
Q 49.859375 40.875 45.40625 35.40625 
Q 44.1875 33.984375 37.640625 27.21875 
Q 31.109375 20.453125 19.1875 8.296875 
z
" id="DejaVuSans-50"/>
      </defs>
      <g transform="translate(179.378594 322.182437)scale(0.1 -0.1)">
       <use xlink:href="#DejaVuSans-8722"/>
       <use x="83.789062" xlink:href="#DejaVuSans-50"/>
       <use x="147.412109" xlink:href="#DejaVuSans-46"/>
       <use x="179.199219" xlink:href="#DejaVuSans-53"/>
      </g>
     </g>
    </g>
    <g id="xtick_5">
     <g id="line2d_5">
      <g>
       <use style="stroke:#000000;stroke-width:0.8;" x="236.16" xlink:href="#mf92f928854" y="307.584"/>
      </g>
     </g>
     <g id="text_5">
      <!-- 0.0 -->
      <g transform="translate(228.208438 322.182437)scale(0.1 -0.1)">
       <use xlink:href="#DejaVuSans-48"/>
       <use x="63.623047" xlink:href="#DejaVuSans-46"/>
       <use x="95.410156" xlink:href="#DejaVuSans-48"/>
      </g>
     </g>
    </g>
    <g id="xtick_6">
     <g id="line2d_6">
      <g>
       <use style="stroke:#000000;stroke-width:0.8;" x="280.8" xlink:href="#mf92f928854" y="307.584"/>
      </g>
     </g>
     <g id="text_6">
      <!-- 2.5 -->
      <g transform="translate(272.848437 322.182437)scale(0.1 -0.1)">
       <use xlink:href="#DejaVuSans-50"/>
       <use x="63.623047" xlink:href="#DejaVuSans-46"/>
       <use x="95.410156" xlink:href="#DejaVuSans-53"/>
      </g>
     </g>
    </g>
    <g id="xtick_7">
     <g id="line2d_7">
      <g>
       <use style="stroke:#000000;stroke-width:0.8;" x="325.44" xlink:href="#mf92f928854" y="307.584"/>
      </g>
     </g>
     <g id="text_7">
      <!-- 5.0 -->
      <g transform="translate(317.488437 322.182437)scale(0.1 -0.1)">
       <use xlink:href="#DejaVuSans-53"/>
       <use x="63.623047" xlink:href="#DejaVuSans-46"/>
       <use x="95.410156" xlink:href="#DejaVuSans-48"/>
      </g>
     </g>
    </g>
    <g id="xtick_8">
     <g id="line2d_8">
      <g>
       <use style="stroke:#000000;stroke-width:0.8;" x="370.08" xlink:href="#mf92f928854" y="307.584"/>
      </g>
     </g>
     <g id="text_8">
      <!-- 7.5 -->
      <g transform="translate(362.128438 322.182437)scale(0.1 -0.1)">
       <use xlink:href="#DejaVuSans-55"/>
       <use x="63.623047" xlink:href="#DejaVuSans-46"/>
       <use x="95.410156" xlink:href="#DejaVuSans-53"/>
      </g>
     </g>
    </g>
    <g id="xtick_9">
     <g id="line2d_9">
      <g>
       <use style="stroke:#000000;stroke-width:0.8;" x="414.72" xlink:href="#mf92f928854" y="307.584"/>
      </g>
     </g>
     <g id="text_9">
      <!-- 10.0 -->
      <g transform="translate(403.587188 322.182437)scale(0.1 -0.1)">
       <use xlink:href="#DejaVuSans-49"/>
       <use x="63.623047" xlink:href="#DejaVuSans-48"/>
       <use x="127.246094" xlink:href="#DejaVuSans-46"/>
       <use x="159.033203" xlink:href="#DejaVuSans-48"/>
      </g>
     </g>
    </g>
    <g id="text_10">
     <!-- x1 -->
     <defs>
      <path d="M 54.890625 54.6875 
L 35.109375 28.078125 
L 55.90625 0 
L 45.3125 0 
L 29.390625 21.484375 
L 13.484375 0 
L 2.875 0 
L 24.125 28.609375 
L 4.6875 54.6875 
L 15.28125 54.6875 
L 29.78125 35.203125 
L 44.28125 54.6875 
z
" id="DejaVuSans-120"/>
     </defs>
     <g transform="translate(230.019375 335.860562)scale(0.1 -0.1)">
      <use xlink:href="#DejaVuSans-120"/>
      <use x="59.179688" xlink:href="#DejaVuSans-49"/>
     </g>
    </g>
   </g>
   <g id="matplotlib.axis_2">
    <g id="ytick_1">
     <g id="line2d_10">
      <defs>
       <path d="M 0 0 
L -3.5 0 
" id="meedbbfdfb5" style="stroke:#000000;stroke-width:0.8;"/>
      </defs>
      <g>
       <use style="stroke:#000000;stroke-width:0.8;" x="57.6" xlink:href="#meedbbfdfb5" y="307.584"/>
      </g>
     </g>
     <g id="text_11">
      <!-- −10.0 -->
      <g transform="translate(19.954687 311.383219)scale(0.1 -0.1)">
       <use xlink:href="#DejaVuSans-8722"/>
       <use x="83.789062" xlink:href="#DejaVuSans-49"/>
       <use x="147.412109" xlink:href="#DejaVuSans-48"/>
       <use x="211.035156" xlink:href="#DejaVuSans-46"/>
       <use x="242.822266" xlink:href="#DejaVuSans-48"/>
      </g>
     </g>
    </g>
    <g id="ytick_2">
     <g id="line2d_11">
      <g>
       <use style="stroke:#000000;stroke-width:0.8;" x="57.6" xlink:href="#meedbbfdfb5" y="274.32"/>
      </g>
     </g>
     <g id="text_12">
      <!-- −7.5 -->
      <g transform="translate(26.317187 278.119219)scale(0.1 -0.1)">
       <use xlink:href="#DejaVuSans-8722"/>
       <use x="83.789062" xlink:href="#DejaVuSans-55"/>
       <use x="147.412109" xlink:href="#DejaVuSans-46"/>
       <use x="179.199219" xlink:href="#DejaVuSans-53"/>
      </g>
     </g>
    </g>
    <g id="ytick_3">
     <g id="line2d_12">
      <g>
       <use style="stroke:#000000;stroke-width:0.8;" x="57.6" xlink:href="#meedbbfdfb5" y="241.056"/>
      </g>
     </g>
     <g id="text_13">
      <!-- −5.0 -->
      <g transform="translate(26.317187 244.855219)scale(0.1 -0.1)">
       <use xlink:href="#DejaVuSans-8722"/>
       <use x="83.789062" xlink:href="#DejaVuSans-53"/>
       <use x="147.412109" xlink:href="#DejaVuSans-46"/>
       <use x="179.199219" xlink:href="#DejaVuSans-48"/>
      </g>
     </g>
    </g>
    <g id="ytick_4">
     <g id="line2d_13">
      <g>
       <use style="stroke:#000000;stroke-width:0.8;" x="57.6" xlink:href="#meedbbfdfb5" y="207.792"/>
      </g>
     </g>
     <g id="text_14">
      <!-- −2.5 -->
      <g transform="translate(26.317187 211.591219)scale(0.1 -0.1)">
       <use xlink:href="#DejaVuSans-8722"/>
       <use x="83.789062" xlink:href="#DejaVuSans-50"/>
       <use x="147.412109" xlink:href="#DejaVuSans-46"/>
       <use x="179.199219" xlink:href="#DejaVuSans-53"/>
      </g>
     </g>
    </g>
    <g id="ytick_5">
     <g id="line2d_14">
      <g>
       <use style="stroke:#000000;stroke-width:0.8;" x="57.6" xlink:href="#meedbbfdfb5" y="174.528"/>
      </g>
     </g>
     <g id="text_15">
      <!-- 0.0 -->
      <g transform="translate(34.696875 178.327219)scale(0.1 -0.1)">
       <use xlink:href="#DejaVuSans-48"/>
       <use x="63.623047" xlink:href="#DejaVuSans-46"/>
       <use x="95.410156" xlink:href="#DejaVuSans-48"/>
      </g>
     </g>
    </g>
    <g id="ytick_6">
     <g id="line2d_15">
      <g>
       <use style="stroke:#000000;stroke-width:0.8;" x="57.6" xlink:href="#meedbbfdfb5" y="141.264"/>
      </g>
     </g>
     <g id="text_16">
      <!-- 2.5 -->
      <g transform="translate(34.696875 145.063219)scale(0.1 -0.1)">
       <use xlink:href="#DejaVuSans-50"/>
       <use x="63.623047" xlink:href="#DejaVuSans-46"/>
       <use x="95.410156" xlink:href="#DejaVuSans-53"/>
      </g>
     </g>
    </g>
    <g id="ytick_7">
     <g id="line2d_16">
      <g>
       <use style="stroke:#000000;stroke-width:0.8;" x="57.6" xlink:href="#meedbbfdfb5" y="108"/>
      </g>
     </g>
     <g id="text_17">
      <!-- 5.0 -->
      <g transform="translate(34.696875 111.799219)scale(0.1 -0.1)">
       <use xlink:href="#DejaVuSans-53"/>
       <use x="63.623047" xlink:href="#DejaVuSans-46"/>
       <use x="95.410156" xlink:href="#DejaVuSans-48"/>
      </g>
     </g>
    </g>
    <g id="ytick_8">
     <g id="line2d_17">
      <g>
       <use style="stroke:#000000;stroke-width:0.8;" x="57.6" xlink:href="#meedbbfdfb5" y="74.736"/>
      </g>
     </g>
     <g id="text_18">
      <!-- 7.5 -->
      <g transform="translate(34.696875 78.535219)scale(0.1 -0.1)">
       <use xlink:href="#DejaVuSans-55"/>
       <use x="63.623047" xlink:href="#DejaVuSans-46"/>
       <use x="95.410156" xlink:href="#DejaVuSans-53"/>
      </g>
     </g>
    </g>
    <g id="ytick_9">
     <g id="line2d_18">
      <g>
       <use style="stroke:#000000;stroke-width:0.8;" x="57.6" xlink:href="#meedbbfdfb5" y="41.472"/>
      </g>
     </g>
     <g id="text_19">
      <!-- 10.0 -->
      <g transform="translate(28.334375 45.271219)scale(0.1 -0.1)">
       <use xlink:href="#DejaVuSans-49"/>
       <use x="63.623047" xlink:href="#DejaVuSans-48"/>
       <use x="127.246094" xlink:href="#DejaVuSans-46"/>
       <use x="159.033203" xlink:href="#DejaVuSans-48"/>
      </g>
     </g>
    </g>
    <g id="text_20">
     <!-- x2 -->
     <g transform="translate(13.875 180.668625)rotate(-90)scale(0.1 -0.1)">
      <use xlink:href="#DejaVuSans-120"/>
      <use x="59.179688" xlink:href="#DejaVuSans-50"/>
     </g>
    </g>
   </g>
   <g id="line2d_19">
    <defs>
     <path d="M -3 0 
L 3 0 
M 0 3 
L 0 -3 
" id="m9017fbac3b" style="stroke:#ff0000;"/>
    </defs>
    <g clip-path="url(#p4b00dcf772)">
     <use style="fill:#ff0000;stroke:#ff0000;" x="270.688969" xlink:href="#m9017fbac3b" y="70.93627"/>
     <use style="fill:#ff0000;stroke:#ff0000;" x="258.455317" xlink:href="#m9017fbac3b" y="65.697753"/>
     <use style="fill:#ff0000;stroke:#ff0000;" x="442.584734" xlink:href="#m9017fbac3b" y="113.683424"/>
     <use style="fill:#ff0000;stroke:#ff0000;" x="345.070709" xlink:href="#m9017fbac3b" y="192.160408"/>
     <use style="fill:#ff0000;stroke:#ff0000;" x="77.429897" xlink:href="#m9017fbac3b" y="324.369146"/>
     <use style="fill:#ff0000;stroke:#ff0000;" x="64.536316" xlink:href="#m9017fbac3b" y="281.221511"/>
     <use style="fill:#ff0000;stroke:#ff0000;" x="108.941049" xlink:href="#m9017fbac3b" y="211.368982"/>
     <use style="fill:#ff0000;stroke:#ff0000;" x="365.912009" xlink:href="#m9017fbac3b" y="169.585927"/>
     <use style="fill:#ff0000;stroke:#ff0000;" x="116.462507" xlink:href="#m9017fbac3b" y="335.233181"/>
     <use style="fill:#ff0000;stroke:#ff0000;" x="131.97054" xlink:href="#m9017fbac3b" y="270.645553"/>
     <use style="fill:#ff0000;stroke:#ff0000;" x="318.926226" xlink:href="#m9017fbac3b" y="105.72097"/>
     <use style="fill:#ff0000;stroke:#ff0000;" x="293.270591" xlink:href="#m9017fbac3b" y="173.394517"/>
     <use style="fill:#ff0000;stroke:#ff0000;" x="367.130131" xlink:href="#m9017fbac3b" y="147.403153"/>
     <use style="fill:#ff0000;stroke:#ff0000;" x="303.279093" xlink:href="#m9017fbac3b" y="176.783747"/>
     <use style="fill:#ff0000;stroke:#ff0000;" x="309.984135" xlink:href="#m9017fbac3b" y="139.540332"/>
     <use style="fill:#ff0000;stroke:#ff0000;" x="169.617095" xlink:href="#m9017fbac3b" y="253.272306"/>
     <use style="fill:#ff0000;stroke:#ff0000;" x="270.109253" xlink:href="#m9017fbac3b" y="75.984798"/>
     <use style="fill:#ff0000;stroke:#ff0000;" x="198.430479" xlink:href="#m9017fbac3b" y="134.182333"/>
     <use style="fill:#ff0000;stroke:#ff0000;" x="179.519662" xlink:href="#m9017fbac3b" y="219.453554"/>
     <use style="fill:#ff0000;stroke:#ff0000;" x="117.442375" xlink:href="#m9017fbac3b" y="270.858241"/>
     <use style="fill:#ff0000;stroke:#ff0000;" x="30.771533" xlink:href="#m9017fbac3b" y="251.646503"/>
     <use style="fill:#ff0000;stroke:#ff0000;" x="187.604415" xlink:href="#m9017fbac3b" y="59.805097"/>
     <use style="fill:#ff0000;stroke:#ff0000;" x="282.729518" xlink:href="#m9017fbac3b" y="91.255908"/>
     <use style="fill:#ff0000;stroke:#ff0000;" x="349.377619" xlink:href="#m9017fbac3b" y="144.749847"/>
     <use style="fill:#ff0000;stroke:#ff0000;" x="195.695849" xlink:href="#m9017fbac3b" y="240.159293"/>
     <use style="fill:#ff0000;stroke:#ff0000;" x="110.159288" xlink:href="#m9017fbac3b" y="195.577021"/>
     <use style="fill:#ff0000;stroke:#ff0000;" x="390.310437" xlink:href="#m9017fbac3b" y="86.094614"/>
     <use style="fill:#ff0000;stroke:#ff0000;" x="398.823732" xlink:href="#m9017fbac3b" y="90.252936"/>
     <use style="fill:#ff0000;stroke:#ff0000;" x="154.816995" xlink:href="#m9017fbac3b" y="271.645995"/>
     <use style="fill:#ff0000;stroke:#ff0000;" x="107.860734" xlink:href="#m9017fbac3b" y="312.435381"/>
     <use style="fill:#ff0000;stroke:#ff0000;" x="67.671315" xlink:href="#m9017fbac3b" y="295.600395"/>
     <use style="fill:#ff0000;stroke:#ff0000;" x="26.853339" xlink:href="#m9017fbac3b" y="276.256538"/>
     <use style="fill:#ff0000;stroke:#ff0000;" x="131.53807" xlink:href="#m9017fbac3b" y="293.825022"/>
     <use style="fill:#ff0000;stroke:#ff0000;" x="174.503698" xlink:href="#m9017fbac3b" y="170.775175"/>
     <use style="fill:#ff0000;stroke:#ff0000;" x="159.602519" xlink:href="#m9017fbac3b" y="235.108887"/>
     <use style="fill:#ff0000;stroke:#ff0000;" x="75.85909" xlink:href="#m9017fbac3b" y="205.170511"/>
     <use style="fill:#ff0000;stroke:#ff0000;" x="150.887385" xlink:href="#m9017fbac3b" y="269.84997"/>
     <use style="fill:#ff0000;stroke:#ff0000;" x="234.893771" xlink:href="#m9017fbac3b" y="62.980939"/>
     <use style="fill:#ff0000;stroke:#ff0000;" x="156.511625" xlink:href="#m9017fbac3b" y="289.687922"/>
     <use style="fill:#ff0000;stroke:#ff0000;" x="325.268245" xlink:href="#m9017fbac3b" y="105.035632"/>
     <use style="fill:#ff0000;stroke:#ff0000;" x="287.574526" xlink:href="#m9017fbac3b" y="164.426829"/>
     <use style="fill:#ff0000;stroke:#ff0000;" x="406.428796" xlink:href="#m9017fbac3b" y="93.85215"/>
     <use style="fill:#ff0000;stroke:#ff0000;" x="318.59123" xlink:href="#m9017fbac3b" y="69.187749"/>
     <use style="fill:#ff0000;stroke:#ff0000;" x="70.351262" xlink:href="#m9017fbac3b" y="275.843496"/>
     <use style="fill:#ff0000;stroke:#ff0000;" x="142.670591" xlink:href="#m9017fbac3b" y="256.442785"/>
     <use style="fill:#ff0000;stroke:#ff0000;" x="43.116436" xlink:href="#m9017fbac3b" y="209.637435"/>
     <use style="fill:#ff0000;stroke:#ff0000;" x="128.528514" xlink:href="#m9017fbac3b" y="277.220705"/>
     <use style="fill:#ff0000;stroke:#ff0000;" x="346.338908" xlink:href="#m9017fbac3b" y="65.657382"/>
     <use style="fill:#ff0000;stroke:#ff0000;" x="315.0386" xlink:href="#m9017fbac3b" y="66.099101"/>
     <use style="fill:#ff0000;stroke:#ff0000;" x="273.405726" xlink:href="#m9017fbac3b" y="124.514627"/>
     <use style="fill:#ff0000;stroke:#ff0000;" x="183.065565" xlink:href="#m9017fbac3b" y="223.358424"/>
     <use style="fill:#ff0000;stroke:#ff0000;" x="252.435492" xlink:href="#m9017fbac3b" y="61.009917"/>
     <use style="fill:#ff0000;stroke:#ff0000;" x="374.951645" xlink:href="#m9017fbac3b" y="116.819569"/>
     <use style="fill:#ff0000;stroke:#ff0000;" x="55.491715" xlink:href="#m9017fbac3b" y="272.99133"/>
     <use style="fill:#ff0000;stroke:#ff0000;" x="408.336879" xlink:href="#m9017fbac3b" y="217.153139"/>
     <use style="fill:#ff0000;stroke:#ff0000;" x="203.771789" xlink:href="#m9017fbac3b" y="258.075985"/>
     <use style="fill:#ff0000;stroke:#ff0000;" x="209.445395" xlink:href="#m9017fbac3b" y="217.250249"/>
     <use style="fill:#ff0000;stroke:#ff0000;" x="107.746891" xlink:href="#m9017fbac3b" y="197.789868"/>
     <use style="fill:#ff0000;stroke:#ff0000;" x="240.630798" xlink:href="#m9017fbac3b" y="161.504824"/>
     <use style="fill:#ff0000;stroke:#ff0000;" x="218.08567" xlink:href="#m9017fbac3b" y="77.454882"/>
     <use style="fill:#ff0000;stroke:#ff0000;" x="20.045645" xlink:href="#m9017fbac3b" y="191.566588"/>
     <use style="fill:#ff0000;stroke:#ff0000;" x="176.528841" xlink:href="#m9017fbac3b" y="271.884185"/>
     <use style="fill:#ff0000;stroke:#ff0000;" x="333.995391" xlink:href="#m9017fbac3b" y="22.625961"/>
     <use style="fill:#ff0000;stroke:#ff0000;" x="152.113897" xlink:href="#m9017fbac3b" y="204.335537"/>
     <use style="fill:#ff0000;stroke:#ff0000;" x="218.967492" xlink:href="#m9017fbac3b" y="106.040347"/>
     <use style="fill:#ff0000;stroke:#ff0000;" x="263.192517" xlink:href="#m9017fbac3b" y="238.715332"/>
     <use style="fill:#ff0000;stroke:#ff0000;" x="59.434873" xlink:href="#m9017fbac3b" y="250.752663"/>
     <use style="fill:#ff0000;stroke:#ff0000;" x="192.931637" xlink:href="#m9017fbac3b" y="249.969532"/>
     <use style="fill:#ff0000;stroke:#ff0000;" x="297.920543" xlink:href="#m9017fbac3b" y="168.957054"/>
     <use style="fill:#ff0000;stroke:#ff0000;" x="294.985981" xlink:href="#m9017fbac3b" y="77.131608"/>
     <use style="fill:#ff0000;stroke:#ff0000;" x="190.362135" xlink:href="#m9017fbac3b" y="352.257906"/>
     <use style="fill:#ff0000;stroke:#ff0000;" x="369.871571" xlink:href="#m9017fbac3b" y="51.037627"/>
     <use style="fill:#ff0000;stroke:#ff0000;" x="341.003284" xlink:href="#m9017fbac3b" y="65.98548"/>
     <use style="fill:#ff0000;stroke:#ff0000;" x="214.862655" xlink:href="#m9017fbac3b" y="247.014015"/>
     <use style="fill:#ff0000;stroke:#ff0000;" x="89.652539" xlink:href="#m9017fbac3b" y="277.98172"/>
     <use style="fill:#ff0000;stroke:#ff0000;" x="23.33509" xlink:href="#m9017fbac3b" y="290.426348"/>
     <use style="fill:#ff0000;stroke:#ff0000;" x="158.720497" xlink:href="#m9017fbac3b" y="201.314296"/>
     <use style="fill:#ff0000;stroke:#ff0000;" x="343.59409" xlink:href="#m9017fbac3b" y="100.631881"/>
     <use style="fill:#ff0000;stroke:#ff0000;" x="19.157921" xlink:href="#m9017fbac3b" y="236.761357"/>
     <use style="fill:#ff0000;stroke:#ff0000;" x="206.254345" xlink:href="#m9017fbac3b" y="128.971873"/>
     <use style="fill:#ff0000;stroke:#ff0000;" x="163.683" xlink:href="#m9017fbac3b" y="266.432616"/>
     <use style="fill:#ff0000;stroke:#ff0000;" x="142.018777" xlink:href="#m9017fbac3b" y="335.44803"/>
     <use style="fill:#ff0000;stroke:#ff0000;" x="341.606273" xlink:href="#m9017fbac3b" y="81.268429"/>
     <use style="fill:#ff0000;stroke:#ff0000;" x="262.223403" xlink:href="#m9017fbac3b" y="23.607014"/>
     <use style="fill:#ff0000;stroke:#ff0000;" x="55.627208" xlink:href="#m9017fbac3b" y="273.122223"/>
     <use style="fill:#ff0000;stroke:#ff0000;" x="354.994999" xlink:href="#m9017fbac3b" y="115.365826"/>
     <use style="fill:#ff0000;stroke:#ff0000;" x="313.547146" xlink:href="#m9017fbac3b" y="48.517973"/>
     <use style="fill:#ff0000;stroke:#ff0000;" x="109.297514" xlink:href="#m9017fbac3b" y="264.849832"/>
     <use style="fill:#ff0000;stroke:#ff0000;" x="220.955771" xlink:href="#m9017fbac3b" y="177.758033"/>
     <use style="fill:#ff0000;stroke:#ff0000;" x="101.972414" xlink:href="#m9017fbac3b" y="197.193314"/>
     <use style="fill:#ff0000;stroke:#ff0000;" x="59.532187" xlink:href="#m9017fbac3b" y="285.041599"/>
     <use style="fill:#ff0000;stroke:#ff0000;" x="136.030719" xlink:href="#m9017fbac3b" y="281.145883"/>
     <use style="fill:#ff0000;stroke:#ff0000;" x="133.278371" xlink:href="#m9017fbac3b" y="202.342351"/>
     <use style="fill:#ff0000;stroke:#ff0000;" x="207.167183" xlink:href="#m9017fbac3b" y="196.625363"/>
     <use style="fill:#ff0000;stroke:#ff0000;" x="66.49679" xlink:href="#m9017fbac3b" y="296.988819"/>
     <use style="fill:#ff0000;stroke:#ff0000;" x="303.876972" xlink:href="#m9017fbac3b" y="180.710063"/>
     <use style="fill:#ff0000;stroke:#ff0000;" x="208.3112" xlink:href="#m9017fbac3b" y="313.829774"/>
     <use style="fill:#ff0000;stroke:#ff0000;" x="296.459697" xlink:href="#m9017fbac3b" y="114.859835"/>
     <use style="fill:#ff0000;stroke:#ff0000;" x="225.804506" xlink:href="#m9017fbac3b" y="276.788813"/>
     <use style="fill:#ff0000;stroke:#ff0000;" x="365.302027" xlink:href="#m9017fbac3b" y="112.723544"/>
     <use style="fill:#ff0000;stroke:#ff0000;" x="89.717723" xlink:href="#m9017fbac3b" y="217.383595"/>
     <use style="fill:#ff0000;stroke:#ff0000;" x="341.097195" xlink:href="#m9017fbac3b" y="108.798742"/>
     <use style="fill:#ff0000;stroke:#ff0000;" x="238.087138" xlink:href="#m9017fbac3b" y="81.850903"/>
     <use style="fill:#ff0000;stroke:#ff0000;" x="83.30273" xlink:href="#m9017fbac3b" y="226.260541"/>
     <use style="fill:#ff0000;stroke:#ff0000;" x="332.965452" xlink:href="#m9017fbac3b" y="99.099542"/>
     <use style="fill:#ff0000;stroke:#ff0000;" x="224.935418" xlink:href="#m9017fbac3b" y="83.618459"/>
     <use style="fill:#ff0000;stroke:#ff0000;" x="291.594448" xlink:href="#m9017fbac3b" y="200.4903"/>
     <use style="fill:#ff0000;stroke:#ff0000;" x="295.637938" xlink:href="#m9017fbac3b" y="201.147699"/>
     <use style="fill:#ff0000;stroke:#ff0000;" x="109.442681" xlink:href="#m9017fbac3b" y="261.256032"/>
     <use style="fill:#ff0000;stroke:#ff0000;" x="142.969737" xlink:href="#m9017fbac3b" y="200.658545"/>
     <use style="fill:#ff0000;stroke:#ff0000;" x="307.928081" xlink:href="#m9017fbac3b" y="184.156846"/>
     <use style="fill:#ff0000;stroke:#ff0000;" x="212.644692" xlink:href="#m9017fbac3b" y="82.756859"/>
    </g>
   </g>
   <g id="line2d_20">
    <defs>
     <path d="M -3 3 
L 3 -3 
M -3 -3 
L 3 3 
" id="m641f38490b" style="stroke:#1f77b4;"/>
    </defs>
    <g clip-path="url(#p4b00dcf772)">
     <use style="fill:#1f77b4;stroke:#1f77b4;" x="224.96916" xlink:href="#m641f38490b" y="153.037223"/>
     <use style="fill:#1f77b4;stroke:#1f77b4;" x="389.031329" xlink:href="#m641f38490b" y="180.151247"/>
     <use style="fill:#1f77b4;stroke:#1f77b4;" x="-1" xlink:href="#m641f38490b" y="134.170896"/>
     <use style="fill:#1f77b4;stroke:#1f77b4;" x="-1" xlink:href="#m641f38490b" y="133.948009"/>
     <use style="fill:#1f77b4;stroke:#1f77b4;" x="215.279577" xlink:href="#m641f38490b" y="153.55914"/>
     <use style="fill:#1f77b4;stroke:#1f77b4;" x="101.192825" xlink:href="#m641f38490b" y="117.427983"/>
     <use style="fill:#1f77b4;stroke:#1f77b4;" x="332.818193" xlink:href="#m641f38490b" y="272.866109"/>
     <use style="fill:#1f77b4;stroke:#1f77b4;" x="225.171972" xlink:href="#m641f38490b" y="215.830157"/>
     <use style="fill:#1f77b4;stroke:#1f77b4;" x="215.346525" xlink:href="#m641f38490b" y="259.146939"/>
     <use style="fill:#1f77b4;stroke:#1f77b4;" x="4.434711" xlink:href="#m641f38490b" y="124.299268"/>
     <use style="fill:#1f77b4;stroke:#1f77b4;" x="252.643627" xlink:href="#m641f38490b" y="292.458513"/>
     <use style="fill:#1f77b4;stroke:#1f77b4;" x="167.879769" xlink:href="#m641f38490b" y="161.507307"/>
     <use style="fill:#1f77b4;stroke:#1f77b4;" x="294.165232" xlink:href="#m641f38490b" y="295.668004"/>
     <use style="fill:#1f77b4;stroke:#1f77b4;" x="275.143784" xlink:href="#m641f38490b" y="209.207328"/>
     <use style="fill:#1f77b4;stroke:#1f77b4;" x="145.739555" xlink:href="#m641f38490b" y="133.724279"/>
     <use style="fill:#1f77b4;stroke:#1f77b4;" x="245.678509" xlink:href="#m641f38490b" y="226.679773"/>
     <use style="fill:#1f77b4;stroke:#1f77b4;" x="263.052183" xlink:href="#m641f38490b" y="184.72965"/>
     <use style="fill:#1f77b4;stroke:#1f77b4;" x="217.330085" xlink:href="#m641f38490b" y="58.997066"/>
     <use style="fill:#1f77b4;stroke:#1f77b4;" x="88.979935" xlink:href="#m641f38490b" y="105.460617"/>
     <use style="fill:#1f77b4;stroke:#1f77b4;" x="94.613274" xlink:href="#m641f38490b" y="59.927714"/>
     <use style="fill:#1f77b4;stroke:#1f77b4;" x="203.109258" xlink:href="#m641f38490b" y="288.428908"/>
     <use style="fill:#1f77b4;stroke:#1f77b4;" x="177.218184" xlink:href="#m641f38490b" y="103.003709"/>
     <use style="fill:#1f77b4;stroke:#1f77b4;" x="251.836117" xlink:href="#m641f38490b" y="240.684517"/>
     <use style="fill:#1f77b4;stroke:#1f77b4;" x="110.114145" xlink:href="#m641f38490b" y="147.235158"/>
     <use style="fill:#1f77b4;stroke:#1f77b4;" x="11.399194" xlink:href="#m641f38490b" y="160.184152"/>
     <use style="fill:#1f77b4;stroke:#1f77b4;" x="100.496451" xlink:href="#m641f38490b" y="90.381713"/>
     <use style="fill:#1f77b4;stroke:#1f77b4;" x="212.162008" xlink:href="#m641f38490b" y="350.649547"/>
     <use style="fill:#1f77b4;stroke:#1f77b4;" x="308.804376" xlink:href="#m641f38490b" y="288.224787"/>
     <use style="fill:#1f77b4;stroke:#1f77b4;" x="249.578423" xlink:href="#m641f38490b" y="208.386816"/>
     <use style="fill:#1f77b4;stroke:#1f77b4;" x="370.086498" xlink:href="#m641f38490b" y="249.515805"/>
     <use style="fill:#1f77b4;stroke:#1f77b4;" x="84.882393" xlink:href="#m641f38490b" y="56.09334"/>
     <use style="fill:#1f77b4;stroke:#1f77b4;" x="139.486721" xlink:href="#m641f38490b" y="184.478706"/>
     <use style="fill:#1f77b4;stroke:#1f77b4;" x="154.993594" xlink:href="#m641f38490b" y="59.822912"/>
     <use style="fill:#1f77b4;stroke:#1f77b4;" x="110.659339" xlink:href="#m641f38490b" y="105.887447"/>
     <use style="fill:#1f77b4;stroke:#1f77b4;" x="471.059353" xlink:href="#m641f38490b" y="194.714034"/>
     <use style="fill:#1f77b4;stroke:#1f77b4;" x="227.935397" xlink:href="#m641f38490b" y="255.017531"/>
     <use style="fill:#1f77b4;stroke:#1f77b4;" x="205.149606" xlink:href="#m641f38490b" y="154.553741"/>
     <use style="fill:#1f77b4;stroke:#1f77b4;" x="84.741817" xlink:href="#m641f38490b" y="116.922162"/>
     <use style="fill:#1f77b4;stroke:#1f77b4;" x="256.218682" xlink:href="#m641f38490b" y="295.386941"/>
     <use style="fill:#1f77b4;stroke:#1f77b4;" x="263.29886" xlink:href="#m641f38490b" y="174.787144"/>
     <use style="fill:#1f77b4;stroke:#1f77b4;" x="34.05238" xlink:href="#m641f38490b" y="25.389989"/>
     <use style="fill:#1f77b4;stroke:#1f77b4;" x="330.024144" xlink:href="#m641f38490b" y="157.964745"/>
     <use style="fill:#1f77b4;stroke:#1f77b4;" x="349.543865" xlink:href="#m641f38490b" y="183.703855"/>
     <use style="fill:#1f77b4;stroke:#1f77b4;" x="260.116336" xlink:href="#m641f38490b" y="232.961821"/>
     <use style="fill:#1f77b4;stroke:#1f77b4;" x="84.476215" xlink:href="#m641f38490b" y="130.788087"/>
     <use style="fill:#1f77b4;stroke:#1f77b4;" x="70.543734" xlink:href="#m641f38490b" y="40.653462"/>
     <use style="fill:#1f77b4;stroke:#1f77b4;" x="242.692343" xlink:href="#m641f38490b" y="165.312164"/>
     <use style="fill:#1f77b4;stroke:#1f77b4;" x="153.573828" xlink:href="#m641f38490b" y="176.093668"/>
     <use style="fill:#1f77b4;stroke:#1f77b4;" x="161.778853" xlink:href="#m641f38490b" y="196.034524"/>
     <use style="fill:#1f77b4;stroke:#1f77b4;" x="330.234567" xlink:href="#m641f38490b" y="222.556349"/>
     <use style="fill:#1f77b4;stroke:#1f77b4;" x="345.504127" xlink:href="#m641f38490b" y="340.954559"/>
     <use style="fill:#1f77b4;stroke:#1f77b4;" x="366.324261" xlink:href="#m641f38490b" y="254.603591"/>
     <use style="fill:#1f77b4;stroke:#1f77b4;" x="150.117944" xlink:href="#m641f38490b" y="135.497532"/>
     <use style="fill:#1f77b4;stroke:#1f77b4;" x="116.686381" xlink:href="#m641f38490b" y="166.764995"/>
     <use style="fill:#1f77b4;stroke:#1f77b4;" x="299.35259" xlink:href="#m641f38490b" y="202.346978"/>
     <use style="fill:#1f77b4;stroke:#1f77b4;" x="146.224432" xlink:href="#m641f38490b" y="117.97618"/>
     <use style="fill:#1f77b4;stroke:#1f77b4;" x="79.629747" xlink:href="#m641f38490b" y="130.292365"/>
     <use style="fill:#1f77b4;stroke:#1f77b4;" x="416.763023" xlink:href="#m641f38490b" y="300.90615"/>
     <use style="fill:#1f77b4;stroke:#1f77b4;" x="217.159967" xlink:href="#m641f38490b" y="229.517332"/>
     <use style="fill:#1f77b4;stroke:#1f77b4;" x="177.272495" xlink:href="#m641f38490b" y="175.341555"/>
     <use style="fill:#1f77b4;stroke:#1f77b4;" x="290.07967" xlink:href="#m641f38490b" y="285.233057"/>
     <use style="fill:#1f77b4;stroke:#1f77b4;" x="411.05094" xlink:href="#m641f38490b" y="244.111452"/>
     <use style="fill:#1f77b4;stroke:#1f77b4;" x="69.016252" xlink:href="#m641f38490b" y="147.895888"/>
     <use style="fill:#1f77b4;stroke:#1f77b4;" x="305.004229" xlink:href="#m641f38490b" y="247.626749"/>
     <use style="fill:#1f77b4;stroke:#1f77b4;" x="156.341277" xlink:href="#m641f38490b" y="86.273567"/>
     <use style="fill:#1f77b4;stroke:#1f77b4;" x="264.753526" xlink:href="#m641f38490b" y="239.871007"/>
     <use style="fill:#1f77b4;stroke:#1f77b4;" x="443.891348" xlink:href="#m641f38490b" y="296.975305"/>
     <use style="fill:#1f77b4;stroke:#1f77b4;" x="242.121563" xlink:href="#m641f38490b" y="66.342629"/>
     <use style="fill:#1f77b4;stroke:#1f77b4;" x="311.480003" xlink:href="#m641f38490b" y="192.566526"/>
     <use style="fill:#1f77b4;stroke:#1f77b4;" x="59.086377" xlink:href="#m641f38490b" y="148.347312"/>
     <use style="fill:#1f77b4;stroke:#1f77b4;" x="270.683118" xlink:href="#m641f38490b" y="222.006243"/>
     <use style="fill:#1f77b4;stroke:#1f77b4;" x="302.223987" xlink:href="#m641f38490b" y="211.244549"/>
     <use style="fill:#1f77b4;stroke:#1f77b4;" x="236.560712" xlink:href="#m641f38490b" y="197.135887"/>
     <use style="fill:#1f77b4;stroke:#1f77b4;" x="170.546568" xlink:href="#m641f38490b" y="240.994311"/>
     <use style="fill:#1f77b4;stroke:#1f77b4;" x="223.831241" xlink:href="#m641f38490b" y="186.879945"/>
     <use style="fill:#1f77b4;stroke:#1f77b4;" x="148.345712" xlink:href="#m641f38490b" y="154.226099"/>
     <use style="fill:#1f77b4;stroke:#1f77b4;" x="106.398441" xlink:href="#m641f38490b" y="117.162876"/>
     <use style="fill:#1f77b4;stroke:#1f77b4;" x="276.727781" xlink:href="#m641f38490b" y="216.436916"/>
     <use style="fill:#1f77b4;stroke:#1f77b4;" x="202.532429" xlink:href="#m641f38490b" y="305.316758"/>
     <use style="fill:#1f77b4;stroke:#1f77b4;" x="388.549593" xlink:href="#m641f38490b" y="218.46348"/>
     <use style="fill:#1f77b4;stroke:#1f77b4;" x="191.545257" xlink:href="#m641f38490b" y="165.622684"/>
     <use style="fill:#1f77b4;stroke:#1f77b4;" x="293.689495" xlink:href="#m641f38490b" y="271.819638"/>
     <use style="fill:#1f77b4;stroke:#1f77b4;" x="403.400752" xlink:href="#m641f38490b" y="334.267667"/>
     <use style="fill:#1f77b4;stroke:#1f77b4;" x="311.862149" xlink:href="#m641f38490b" y="273.610338"/>
     <use style="fill:#1f77b4;stroke:#1f77b4;" x="280.134063" xlink:href="#m641f38490b" y="179.962038"/>
     <use style="fill:#1f77b4;stroke:#1f77b4;" x="198.588252" xlink:href="#m641f38490b" y="106.424474"/>
     <use style="fill:#1f77b4;stroke:#1f77b4;" x="316.945426" xlink:href="#m641f38490b" y="249.377772"/>
     <use style="fill:#1f77b4;stroke:#1f77b4;" x="337.409584" xlink:href="#m641f38490b" y="317.194773"/>
     <use style="fill:#1f77b4;stroke:#1f77b4;" x="180.9046" xlink:href="#m641f38490b" y="115.028373"/>
    </g>
   </g>
   <g id="patch_3">
    <path d="M 57.6 307.584 
L 57.6 41.472 
" style="fill:none;stroke:#000000;stroke-linecap:square;stroke-linejoin:miter;stroke-width:0.8;"/>
   </g>
   <g id="patch_4">
    <path d="M 414.72 307.584 
L 414.72 41.472 
" style="fill:none;stroke:#000000;stroke-linecap:square;stroke-linejoin:miter;stroke-width:0.8;"/>
   </g>
   <g id="patch_5">
    <path d="M 57.6 307.584 
L 414.72 307.584 
" style="fill:none;stroke:#000000;stroke-linecap:square;stroke-linejoin:miter;stroke-width:0.8;"/>
   </g>
   <g id="patch_6">
    <path d="M 57.6 41.472 
L 414.72 41.472 
" style="fill:none;stroke:#000000;stroke-linecap:square;stroke-linejoin:miter;stroke-width:0.8;"/>
   </g>
   <g id="text_21">
    <!-- Dataset -->
    <defs>
     <path d="M 19.671875 64.796875 
L 19.671875 8.109375 
L 31.59375 8.109375 
Q 46.6875 8.109375 53.6875 14.9375 
Q 60.6875 21.78125 60.6875 36.53125 
Q 60.6875 51.171875 53.6875 57.984375 
Q 46.6875 64.796875 31.59375 64.796875 
z
M 9.8125 72.90625 
L 30.078125 72.90625 
Q 51.265625 72.90625 61.171875 64.09375 
Q 71.09375 55.28125 71.09375 36.53125 
Q 71.09375 17.671875 61.125 8.828125 
Q 51.171875 0 30.078125 0 
L 9.8125 0 
z
" id="DejaVuSans-68"/>
     <path d="M 34.28125 27.484375 
Q 23.390625 27.484375 19.1875 25 
Q 14.984375 22.515625 14.984375 16.5 
Q 14.984375 11.71875 18.140625 8.90625 
Q 21.296875 6.109375 26.703125 6.109375 
Q 34.1875 6.109375 38.703125 11.40625 
Q 43.21875 16.703125 43.21875 25.484375 
L 43.21875 27.484375 
z
M 52.203125 31.203125 
L 52.203125 0 
L 43.21875 0 
L 43.21875 8.296875 
Q 40.140625 3.328125 35.546875 0.953125 
Q 30.953125 -1.421875 24.3125 -1.421875 
Q 15.921875 -1.421875 10.953125 3.296875 
Q 6 8.015625 6 15.921875 
Q 6 25.140625 12.171875 29.828125 
Q 18.359375 34.515625 30.609375 34.515625 
L 43.21875 34.515625 
L 43.21875 35.40625 
Q 43.21875 41.609375 39.140625 45 
Q 35.0625 48.390625 27.6875 48.390625 
Q 23 48.390625 18.546875 47.265625 
Q 14.109375 46.140625 10.015625 43.890625 
L 10.015625 52.203125 
Q 14.9375 54.109375 19.578125 55.046875 
Q 24.21875 56 28.609375 56 
Q 40.484375 56 46.34375 49.84375 
Q 52.203125 43.703125 52.203125 31.203125 
z
" id="DejaVuSans-97"/>
     <path d="M 18.3125 70.21875 
L 18.3125 54.6875 
L 36.8125 54.6875 
L 36.8125 47.703125 
L 18.3125 47.703125 
L 18.3125 18.015625 
Q 18.3125 11.328125 20.140625 9.421875 
Q 21.96875 7.515625 27.59375 7.515625 
L 36.8125 7.515625 
L 36.8125 0 
L 27.59375 0 
Q 17.1875 0 13.234375 3.875 
Q 9.28125 7.765625 9.28125 18.015625 
L 9.28125 47.703125 
L 2.6875 47.703125 
L 2.6875 54.6875 
L 9.28125 54.6875 
L 9.28125 70.21875 
z
" id="DejaVuSans-116"/>
     <path d="M 44.28125 53.078125 
L 44.28125 44.578125 
Q 40.484375 46.53125 36.375 47.5 
Q 32.28125 48.484375 27.875 48.484375 
Q 21.1875 48.484375 17.84375 46.4375 
Q 14.5 44.390625 14.5 40.28125 
Q 14.5 37.15625 16.890625 35.375 
Q 19.28125 33.59375 26.515625 31.984375 
L 29.59375 31.296875 
Q 39.15625 29.25 43.1875 25.515625 
Q 47.21875 21.78125 47.21875 15.09375 
Q 47.21875 7.46875 41.1875 3.015625 
Q 35.15625 -1.421875 24.609375 -1.421875 
Q 20.21875 -1.421875 15.453125 -0.5625 
Q 10.6875 0.296875 5.421875 2 
L 5.421875 11.28125 
Q 10.40625 8.6875 15.234375 7.390625 
Q 20.0625 6.109375 24.8125 6.109375 
Q 31.15625 6.109375 34.5625 8.28125 
Q 37.984375 10.453125 37.984375 14.40625 
Q 37.984375 18.0625 35.515625 20.015625 
Q 33.0625 21.96875 24.703125 23.78125 
L 21.578125 24.515625 
Q 13.234375 26.265625 9.515625 29.90625 
Q 5.8125 33.546875 5.8125 39.890625 
Q 5.8125 47.609375 11.28125 51.796875 
Q 16.75 56 26.8125 56 
Q 31.78125 56 36.171875 55.265625 
Q 40.578125 54.546875 44.28125 53.078125 
z
" id="DejaVuSans-115"/>
     <path d="M 56.203125 29.59375 
L 56.203125 25.203125 
L 14.890625 25.203125 
Q 15.484375 15.921875 20.484375 11.0625 
Q 25.484375 6.203125 34.421875 6.203125 
Q 39.59375 6.203125 44.453125 7.46875 
Q 49.3125 8.734375 54.109375 11.28125 
L 54.109375 2.78125 
Q 49.265625 0.734375 44.1875 -0.34375 
Q 39.109375 -1.421875 33.890625 -1.421875 
Q 20.796875 -1.421875 13.15625 6.1875 
Q 5.515625 13.8125 5.515625 26.8125 
Q 5.515625 40.234375 12.765625 48.109375 
Q 20.015625 56 32.328125 56 
Q 43.359375 56 49.78125 48.890625 
Q 56.203125 41.796875 56.203125 29.59375 
z
M 47.21875 32.234375 
Q 47.125 39.59375 43.09375 43.984375 
Q 39.0625 48.390625 32.421875 48.390625 
Q 24.90625 48.390625 20.390625 44.140625 
Q 15.875 39.890625 15.1875 32.171875 
z
" id="DejaVuSans-101"/>
    </defs>
    <g transform="translate(212.664375 35.472)scale(0.12 -0.12)">
     <use xlink:href="#DejaVuSans-68"/>
     <use x="77.001953" xlink:href="#DejaVuSans-97"/>
     <use x="138.28125" xlink:href="#DejaVuSans-116"/>
     <use x="177.490234" xlink:href="#DejaVuSans-97"/>
     <use x="238.769531" xlink:href="#DejaVuSans-115"/>
     <use x="290.869141" xlink:href="#DejaVuSans-101"/>
     <use x="352.392578" xlink:href="#DejaVuSans-116"/>
    </g>
   </g>
  </g>
 </g>
 <defs>
  <clipPath id="p4b00dcf772">
   <rect height="266.112" width="357.12" x="57.6" y="41.472"/>
  </clipPath>
 </defs>
</svg>
